<?xml version="1.0" encoding="UTF-8"?>
<svg version="1.1" xmlns="http://www.w3.org/2000/svg" width="612" height="408">
<path d="M0 0 C1.34788101 -0.01496269 1.34788101 -0.01496269 2.72299194 -0.03022766 C3.70128464 -0.03089233 4.67957733 -0.03155701 5.68751526 -0.03224182 C6.72369995 -0.04056534 7.75988464 -0.04888885 8.82746887 -0.0574646 C12.25554653 -0.08157665 15.68343404 -0.09033758 19.11158752 -0.09693909 C21.49285948 -0.10590333 23.87413084 -0.11502514 26.25540161 -0.1242981 C31.24792348 -0.14079312 36.24037824 -0.14848936 41.23292542 -0.15138245 C47.63351366 -0.15677169 54.03347243 -0.19447277 60.43388271 -0.24012661 C65.3520743 -0.26984958 70.2701133 -0.27710495 75.18838692 -0.2781086 C77.54833426 -0.28231908 79.90828171 -0.29478629 82.26814079 -0.31562614 C85.5672597 -0.34244507 88.86490596 -0.33774284 92.16407776 -0.32521057 C93.14034622 -0.34004486 94.11661469 -0.35487915 95.12246704 -0.37016296 C99.77430965 -0.31977627 101.80841591 -0.25959124 105.57339478 2.68661499 C108.50010363 6.6368415 108.61976092 8.65599286 108.63575745 13.55638123 C108.63911606 14.20052475 108.64247467 14.84466827 108.64593506 15.5083313 C108.65545488 17.64383358 108.65738899 19.77925747 108.65846252 21.91477966 C108.66167552 23.39970431 108.66503963 24.88462864 108.66854858 26.36955261 C108.67454322 29.48668653 108.67638825 32.60379272 108.67579651 35.72093201 C108.67569512 39.70664349 108.68932111 43.69217588 108.70656872 47.677845 C108.71771542 50.74742949 108.71971486 53.81697114 108.71918678 56.88657379 C108.72036388 58.35531478 108.72477048 59.82405699 108.73251915 61.29277802 C108.74236859 63.3534273 108.73942125 65.41369391 108.7334137 67.47434998 C108.73483871 68.6452417 108.73626373 69.81613342 108.73773193 71.02250671 C108.48092515 74.40000012 107.69649802 77.12080326 106.49049377 80.27415466 C107.06283752 80.80524841 107.63518127 81.33634216 108.22486877 81.88352966 C112.99976124 86.92186448 118.87684457 94.57085841 119.30299377 101.77415466 C118.25005589 106.30988708 117.28797667 107.54284108 113.49049377 110.27415466 C109.3501946 111.02716648 105.25100307 110.94646137 101.05274963 110.90525818 C99.15934593 110.91599113 99.15934593 110.91599113 97.22769165 110.92694092 C93.77301539 110.94543335 90.31911227 110.93253182 86.86446834 110.91285062 C83.24684569 110.89644797 79.62927139 110.90527908 76.0116272 110.91036987 C69.93796964 110.91488848 63.86462029 110.89903433 57.79103088 110.87107849 C50.77046204 110.8390129 43.75044857 110.83904845 36.72984022 110.85629326 C29.97281302 110.87215872 23.21598932 110.86542571 16.45897102 110.84835625 C13.58461142 110.84148616 10.71041496 110.84251761 7.83605766 110.8499012 C3.82333914 110.85898736 -0.18852169 110.83502809 -4.20115662 110.80760193 C-5.3945163 110.81412781 -6.58787598 110.82065369 -7.81739807 110.82737732 C-8.90951096 110.81465286 -10.00162384 110.80192841 -11.12683105 110.78881836 C-12.07531449 110.78601144 -13.02379793 110.78320452 -14.00102329 110.78031254 C-17.24962278 110.12481507 -18.43028059 108.7951653 -20.50950623 106.27415466 C-22.35588969 102.58138773 -21.63568495 99.07306169 -20.50950623 95.27415466 C-14.0313576 82.53508035 -14.0313576 82.53508035 -9.50950623 80.27415466 C-10.01554615 78.10541215 -10.50934436 76.2744784 -11.50950623 74.27415466 C-11.61650319 72.21275416 -11.65838284 70.14786406 -11.67063904 68.08372498 C-11.68024658 66.78187256 -11.68985413 65.48002014 -11.69975281 64.13871765 C-11.70460154 62.70990677 -11.70888019 61.28109385 -11.71263123 59.85227966 C-11.71838373 58.38977557 -11.72414145 56.92727151 -11.72990417 55.46476746 C-11.74041703 52.39471587 -11.74625731 49.32469048 -11.7497406 46.25462341 C-11.75521516 42.32936732 -11.77921934 38.40445989 -11.80771255 34.4793129 C-11.82638307 31.45604967 -11.83154695 28.43286952 -11.83307648 25.40955353 C-11.83609539 23.96312817 -11.8440982 22.516704 -11.85726166 21.07033539 C-11.87440674 19.04101478 -11.87058491 17.01155022 -11.86595154 14.98216248 C-11.86959717 13.82903564 -11.8732428 12.67590881 -11.8769989 11.48783875 C-11.45261372 7.77663583 -10.51648348 5.41723972 -8.50950623 2.27415466 C-5.61906315 0.45078954 -3.38745628 0.02022586 0 0 Z M51.49049377 24.27415466 C51.16436096 25.49231873 50.83822815 26.71048279 50.50221252 27.96556091 C50.06107262 29.58933121 49.61965139 31.2130251 49.17799377 32.83665466 C48.96465393 33.63651794 48.75131409 34.43638123 48.5315094 35.26048279 C47.51749363 38.96845091 46.45434629 42.53662382 44.89674377 46.05540466 C43.68668267 48.82510008 42.89240058 51.26462061 42.30299377 54.21165466 C42.14443909 54.9838031 41.9858844 55.75595154 41.82252502 56.55149841 C41.71295471 57.11997498 41.6033844 57.68845154 41.49049377 58.27415466 C42.81049377 58.27415466 44.13049377 58.27415466 45.49049377 58.27415466 C48.2478565 50.21326874 50.88762437 42.13182797 53.30299377 33.96165466 C53.52173157 33.2269696 53.74046936 32.49228455 53.96583557 31.7353363 C55.09582174 28.06631645 55.09582174 28.06631645 55.49049377 24.27415466 C54.17049377 24.27415466 52.85049377 24.27415466 51.49049377 24.27415466 Z M33.49049377 28.27415466 C33.24299377 28.89290466 32.99549377 29.51165466 32.74049377 30.14915466 C31.24047069 32.69919391 30.12076887 33.03637815 27.49049377 34.27415466 C25.23984275 36.19082387 25.23984275 36.19082387 23.49049377 38.27415466 C23.49049377 38.93415466 23.49049377 39.59415466 23.49049377 40.27415466 C22.50049377 40.76915466 22.50049377 40.76915466 21.49049377 41.27415466 C22.48049377 42.75915466 22.48049377 42.75915466 23.49049377 44.27415466 C24.15049377 44.27415466 24.81049377 44.27415466 25.49049377 44.27415466 C25.49049377 44.93415466 25.49049377 45.59415466 25.49049377 46.27415466 C26.15049377 46.27415466 26.81049377 46.27415466 27.49049377 46.27415466 C27.82049377 47.26415466 28.15049377 48.25415466 28.49049377 49.27415466 C29.15049377 49.27415466 29.81049377 49.27415466 30.49049377 49.27415466 C30.82049377 50.26415466 31.15049377 51.25415466 31.49049377 52.27415466 C33.99496893 53.49285395 33.99496893 53.49285395 36.49049377 54.27415466 C35.94064605 50.39903739 34.21494046 48.67838961 31.42799377 46.02415466 C30.69451721 45.31774841 29.96104065 44.61134216 29.20533752 43.88352966 C28.63943909 43.35243591 28.07354065 42.82134216 27.49049377 42.27415466 C27.79986877 41.67602966 28.10924377 41.07790466 28.42799377 40.46165466 C29.59259081 38.18458695 29.59259081 38.18458695 30.49049377 35.27415466 C32.42799377 34.21165466 32.42799377 34.21165466 34.49049377 33.27415466 C35.15049377 32.61415466 35.81049377 31.95415466 36.49049377 31.27415466 C36.49049377 30.28415466 36.49049377 29.29415466 36.49049377 28.27415466 C35.50049377 28.27415466 34.51049377 28.27415466 33.49049377 28.27415466 Z M60.49049377 28.27415466 C60.49049377 29.26415466 60.49049377 30.25415466 60.49049377 31.27415466 C61.15049377 31.27415466 61.81049377 31.27415466 62.49049377 31.27415466 C63.15049377 32.59415466 63.81049377 33.91415466 64.49049377 35.27415466 C65.15049377 35.27415466 65.81049377 35.27415466 66.49049377 35.27415466 C67.15049377 36.59415466 67.81049377 37.91415466 68.49049377 39.27415466 C69.15049377 39.27415466 69.81049377 39.27415466 70.49049377 39.27415466 C70.2352818 42.71951638 69.27759436 43.46391284 66.61549377 45.83665466 C65.58424377 46.64102966 64.55299377 47.44540466 63.49049377 48.27415466 C61.65359901 49.77302337 61.65359901 49.77302337 60.49049377 51.27415466 C60.49049377 52.26415466 60.49049377 53.25415466 60.49049377 54.27415466 C64.70461614 53.76095943 66.84505468 51.41788379 69.80299377 48.52415466 C70.70662659 47.66306091 71.6102594 46.80196716 72.54127502 45.91477966 C74.7163648 43.48579739 74.7163648 43.48579739 74.58815002 40.77806091 C73.13995205 37.47452034 71.18981347 35.48001089 68.61549377 32.96165466 C67.7311969 32.07864685 66.84690002 31.19563904 65.93580627 30.28587341 C63.63211434 27.95649566 63.63211434 27.95649566 60.49049377 28.27415466 Z M30.49049377 96.27415466 C30.49049377 96.93415466 30.49049377 97.59415466 30.49049377 98.27415466 C42.37049377 98.27415466 54.25049377 98.27415466 66.49049377 98.27415466 C66.49049377 97.28415466 66.49049377 96.29415466 66.49049377 95.27415466 C61.38920545 93.57372522 55.9508177 94.08823051 50.61158752 94.08885193 C48.49810232 94.08666254 46.38513687 94.06848515 44.27174377 94.04954529 C42.92799556 94.04661165 41.58424486 94.04462665 40.24049377 94.04368591 C38.4074469 94.03752258 38.4074469 94.03752258 36.53736877 94.03123474 C33.31533569 94.03933588 33.31533569 94.03933588 30.49049377 96.27415466 Z " fill="#0F84DF" transform="translate(129.50950622558594,144.72584533691406)"/>
<path d="M0 0 C33.66 0 67.32 0 102 0 C102.061875 8.559375 102.12375 17.11875 102.1875 25.9375 C102.22846802 29.96505493 102.22846802 29.96505493 102.27026367 34.07397461 C102.27903343 36.22509309 102.28667621 38.37621659 102.29296875 40.52734375 C102.3159906 42.17482605 102.3159906 42.17482605 102.33947754 43.85559082 C102.34002136 45.46802673 102.34002136 45.46802673 102.34057617 47.11303711 C102.35056892 48.49536781 102.35056892 48.49536781 102.36076355 49.90562439 C102 53 102 53 99 62 C66.33 62 33.66 62 0 62 C0 41.54 0 21.08 0 0 Z M54 15 C53.67386719 16.21816406 53.34773438 17.43632812 53.01171875 18.69140625 C52.57057884 20.31517655 52.12915761 21.93887044 51.6875 23.5625 C51.47416016 24.36236328 51.26082031 25.16222656 51.04101562 25.98632812 C50.02699985 29.69429625 48.96385252 33.26246916 47.40625 36.78125 C46.1961889 39.55094542 45.40190681 41.99046595 44.8125 44.9375 C44.65394531 45.70964844 44.49539062 46.48179687 44.33203125 47.27734375 C44.22246094 47.84582031 44.11289063 48.41429687 44 49 C45.32 49 46.64 49 48 49 C50.75736272 40.93911408 53.3971306 32.85767331 55.8125 24.6875 C56.03123779 23.95281494 56.24997559 23.21812988 56.4753418 22.46118164 C57.60532797 18.79216179 57.60532797 18.79216179 58 15 C56.68 15 55.36 15 54 15 Z M36 19 C35.7525 19.61875 35.505 20.2375 35.25 20.875 C33.74997691 23.42503925 32.6302751 23.76222348 30 25 C27.74934898 26.91666921 27.74934898 26.91666921 26 29 C26 29.66 26 30.32 26 31 C25.01 31.495 25.01 31.495 24 32 C24.99 33.485 24.99 33.485 26 35 C26.66 35 27.32 35 28 35 C28 35.66 28 36.32 28 37 C28.66 37 29.32 37 30 37 C30.33 37.99 30.66 38.98 31 40 C31.66 40 32.32 40 33 40 C33.33 40.99 33.66 41.98 34 43 C36.50447516 44.21869929 36.50447516 44.21869929 39 45 C38.45015228 41.12488273 36.72444669 39.40423494 33.9375 36.75 C33.20402344 36.04359375 32.47054687 35.3371875 31.71484375 34.609375 C31.14894531 34.07828125 30.58304688 33.5471875 30 33 C30.309375 32.401875 30.61875 31.80375 30.9375 31.1875 C32.10209704 28.91043228 32.10209704 28.91043228 33 26 C34.9375 24.9375 34.9375 24.9375 37 24 C37.66 23.34 38.32 22.68 39 22 C39 21.01 39 20.02 39 19 C38.01 19 37.02 19 36 19 Z M63 19 C63 19.99 63 20.98 63 22 C63.66 22 64.32 22 65 22 C65.66 23.32 66.32 24.64 67 26 C67.66 26 68.32 26 69 26 C69.66 27.32 70.32 28.64 71 30 C71.66 30 72.32 30 73 30 C72.74478802 33.44536172 71.78710059 34.18975817 69.125 36.5625 C68.09375 37.366875 67.0625 38.17125 66 39 C64.16310524 40.49886871 64.16310524 40.49886871 63 42 C63 42.99 63 43.98 63 45 C67.21412236 44.48680477 69.35456091 42.14372913 72.3125 39.25 C73.21613281 38.38890625 74.11976563 37.5278125 75.05078125 36.640625 C77.22587102 34.21164272 77.22587102 34.21164272 77.09765625 31.50390625 C75.64945828 28.20036567 73.6993197 26.20585622 71.125 23.6875 C70.24070312 22.80449219 69.35640625 21.92148438 68.4453125 21.01171875 C66.14162056 18.682341 66.14162056 18.682341 63 19 Z " fill="#0991E2" transform="translate(127,154)"/>
<path d="M0 0 C0.89583801 -0.00860046 1.79167603 -0.01720093 2.71466064 -0.02606201 C4.19288551 -0.03245193 4.19288551 -0.03245193 5.70097351 -0.03897095 C7.25481247 -0.05123718 7.25481247 -0.05123718 8.84004211 -0.06375122 C12.27895015 -0.0886286 15.71781688 -0.10512646 19.15678406 -0.11953735 C20.91539796 -0.12752287 20.91539796 -0.12752287 22.70953941 -0.13566971 C28.91387148 -0.16241029 35.11818335 -0.18178312 41.32255554 -0.19619751 C47.73886169 -0.21285585 54.15465526 -0.25764165 60.5707674 -0.30856895 C65.49752408 -0.34218267 70.42415818 -0.3537685 75.35101891 -0.35942459 C77.71655893 -0.3661523 80.08209047 -0.38141346 82.4475193 -0.4053154 C85.75639065 -0.43684515 89.06386711 -0.43702158 92.37284851 -0.42959595 C93.35225906 -0.44600128 94.33166962 -0.46240662 95.34075928 -0.47930908 C99.79515137 -0.43833387 102.08093693 -0.28384549 105.84864807 2.25328064 C108.18563919 5.85447328 108.30696004 7.87264917 108.20683289 12.14730835 C108.19780945 12.83078842 108.18878601 13.51426849 108.17948914 14.21846008 C108.14387716 16.46505729 108.07244889 18.70897807 108.00053406 20.9546814 C107.96875219 22.51690902 107.93921759 24.07918383 107.91183472 25.64149475 C107.83390894 29.74393101 107.72554104 33.84501514 107.61076355 37.94656372 C107.49894424 42.13572899 107.41600325 46.32545573 107.33061218 50.51522827 C107.15896093 58.72894192 106.95513714 66.94145185 106.73100281 75.15390015 C106.07100281 75.15390015 105.41100281 75.15390015 104.73100281 75.15390015 C104.23600281 77.13390015 104.23600281 77.13390015 103.73100281 79.15390015 C100.8673013 79.97012767 98.32722678 80.27939522 95.35316467 80.28088379 C94.04926537 80.28511353 94.04926537 80.28511353 92.71902466 80.28942871 C91.77342178 80.28740448 90.82781891 80.28538025 89.8535614 80.28329468 C88.35057747 80.28592316 88.35057747 80.28592316 86.81723022 80.28860474 C83.50461598 80.29300684 80.1920551 80.29009145 76.87944031 80.28671265 C74.58066294 80.28738605 72.28188564 80.28835638 69.98310852 80.28961182 C65.16631899 80.29108648 60.349548 80.28894125 55.53276062 80.28427124 C49.34736344 80.27856769 43.16200959 80.28185839 36.976614 80.2878437 C32.23098929 80.29145009 27.48537492 80.29031048 22.73974991 80.28771591 C20.45829386 80.28704719 18.17683689 80.28787316 15.89538193 80.29019547 C12.71344752 80.29272393 9.53158424 80.2888789 6.34965515 80.28329468 C5.40000381 80.28531891 4.45035248 80.28734314 3.47192383 80.28942871 C2.60829727 80.28660889 1.74467072 80.28378906 0.85487366 80.28088379 C0.1023551 80.28050676 -0.65016346 80.28012974 -1.42548561 80.27974129 C-3.26899719 80.15390015 -3.26899719 80.15390015 -5.26899719 79.15390015 C-8.92679062 71.89549259 -8.74402202 64.71727676 -8.78071594 56.73202515 C-8.79759438 55.34055022 -8.81574879 53.94909025 -8.83511353 52.55764771 C-8.88237086 48.91625675 -8.9123248 45.2749263 -8.93855286 41.6333313 C-8.96839886 37.92521969 -9.01498279 34.21732162 -9.06001282 30.5093689 C-9.3685085 4.27602766 -9.3685085 4.27602766 -7.89399719 2.46640015 C-5.17360789 0.26916263 -3.42494421 0.02444524 0 0 Z M-2.26899719 9.15390015 C-2.26899719 29.61390015 -2.26899719 50.07390015 -2.26899719 71.15390015 C30.40100281 71.15390015 63.07100281 71.15390015 96.73100281 71.15390015 C99.45336661 63.54952823 99.45336661 63.54952823 100.07157898 56.26693726 C100.07103516 54.65450134 100.07103516 54.65450134 100.07048035 53.00949097 C100.0474585 51.36200867 100.0474585 51.36200867 100.02397156 49.6812439 C100.0194397 48.13201233 100.0194397 48.13201233 100.01481628 46.55148315 C99.99924224 42.73135233 99.95735923 38.9113651 99.91850281 35.09140015 C99.85662781 26.53202515 99.79475281 17.97265015 99.73100281 9.15390015 C66.07100281 9.15390015 32.41100281 9.15390015 -2.26899719 9.15390015 Z " fill="#0159B7" transform="translate(129.2689971923828,144.84609985351563)"/>
<path d="M0 0 C0.66 0 1.32 0 2 0 C2.60226028 7.10667128 2.60226028 7.10667128 0.24684143 10.60044861 C-3.99790796 14.64468152 -9.94938593 13.68496826 -15.43774414 13.63110352 C-17.33114784 13.64183647 -17.33114784 13.64183647 -19.26280212 13.65278625 C-22.71747838 13.67127868 -26.17138151 13.65837716 -29.62602544 13.63869596 C-33.24364808 13.62229331 -36.86122239 13.63112441 -40.47886658 13.63621521 C-46.55252414 13.64073382 -52.62587349 13.62487966 -58.69946289 13.59692383 C-65.72003174 13.56485823 -72.7400452 13.56489379 -79.76065356 13.5821386 C-86.51768075 13.59800405 -93.27450445 13.59127105 -100.03152275 13.57420158 C-102.90588235 13.5673315 -105.78007881 13.56836294 -108.65443611 13.57574654 C-112.66715464 13.58483269 -116.67901546 13.56087343 -120.69165039 13.53344727 C-121.88501007 13.53997314 -123.07836975 13.54649902 -124.30789185 13.55322266 C-125.40000473 13.5404982 -126.49211761 13.52777374 -127.61732483 13.5146637 C-128.56580827 13.51185678 -129.51429171 13.50904985 -130.49151707 13.50615788 C-133.74011656 12.85066041 -134.92077436 11.52101064 -137 9 C-138.35439668 6.29120665 -138.06501451 3.99066732 -138 1 C-137.34 1 -136.68 1 -136 1 C-135.67 1.66 -135.34 2.32 -135 3 C-90.78 3 -46.56 3 -1 3 C-0.67 2.01 -0.34 1.02 0 0 Z " fill="#054FA2" transform="translate(246,242)"/>
<path d="M0 0 C2.05078125 0.03255208 4.1015625 0.06510417 6.15234375 0.09765625 C8.57314633 7.01423505 10.45211987 13.97118594 12.15234375 21.09765625 C14.44796184 14.50385962 16.37323447 7.84817727 18.15234375 1.09765625 C20.79234375 0.76765625 23.43234375 0.43765625 26.15234375 0.09765625 C28.63151457 3.87307924 30.02309744 7.45454989 31.27734375 11.78515625 C32.46537713 16.03938919 32.46537713 16.03938919 34.15234375 20.09765625 C36.04336395 14.76497929 37.60684645 9.49499811 38.72265625 3.9453125 C39.15234375 2.09765625 39.15234375 2.09765625 40.15234375 0.09765625 C43.12234375 0.09765625 46.09234375 0.09765625 49.15234375 0.09765625 C47.41252023 8.36639647 45.2227482 16.50400705 43.02734375 24.66015625 C42.65086662 26.06440621 42.27456318 27.46870274 41.8984375 28.87304688 C40.98507384 32.28178908 40.06936429 35.68989575 39.15234375 39.09765625 C36.18234375 39.09765625 33.21234375 39.09765625 30.15234375 39.09765625 C29.5465308 37.45242818 28.94280108 35.80643301 28.33984375 34.16015625 C28.00339844 33.24363281 27.66695313 32.32710937 27.3203125 31.3828125 C25.87127797 27.30709999 24.50783631 23.20526139 23.15234375 19.09765625 C22.97582275 19.63245605 22.79930176 20.16725586 22.61743164 20.71826172 C21.81813559 23.13691423 21.0165183 25.55479112 20.21484375 27.97265625 C19.93705078 28.81441406 19.65925781 29.65617187 19.37304688 30.5234375 C19.10556641 31.32910156 18.83808594 32.13476562 18.5625 32.96484375 C18.31636963 33.70847168 18.07023926 34.45209961 17.81665039 35.21826172 C17.15234375 37.09765625 17.15234375 37.09765625 16.15234375 39.09765625 C13.18234375 39.09765625 10.21234375 39.09765625 7.15234375 39.09765625 C1.30601028 17.89495355 1.30601028 17.89495355 -1.28515625 7.78515625 C-1.61386719 6.51027344 -1.94257813 5.23539063 -2.28125 3.921875 C-2.46816406 2.98988281 -2.65507812 2.05789062 -2.84765625 1.09765625 C-1.84765625 0.09765625 -1.84765625 0.09765625 0 0 Z " fill="#123B6A" transform="translate(259.84765625,202.90234375)"/>
<path d="M0 0 C0.98613281 -0.00029205 1.97226563 -0.00058411 2.98828125 -0.00088501 C6.22933932 0.000502 9.470164 0.01603369 12.71118164 0.03173828 C14.96562067 0.03547064 17.22006133 0.03831656 19.47450256 0.04031372 C25.39446529 0.04793259 31.31432914 0.06756613 37.23425293 0.08972168 C43.28058535 0.11021772 49.32693383 0.11932347 55.37329102 0.12939453 C67.22684997 0.15081363 79.08033569 0.18492851 90.93383789 0.22705078 C89.18383789 5.10205078 89.18383789 5.10205078 86.93383789 6.22705078 C83.88330692 6.35008152 80.85417052 6.41285401 77.80249023 6.43237305 C76.85610184 6.44227264 75.90971344 6.45217224 74.93464661 6.46237183 C71.79638193 6.494041 68.6581021 6.51876566 65.51977539 6.54345703 C63.3478658 6.56402188 61.17596025 6.58501822 59.00405884 6.60643005 C53.27973704 6.66169917 47.55537884 6.71108709 41.83099365 6.75927734 C34.96689866 6.81827523 28.10287039 6.88452978 21.23883057 6.94957733 C10.80387366 7.04764772 0.36887452 7.13646217 -10.06616211 7.22705078 C-10.06616211 28.34705078 -10.06616211 49.46705078 -10.06616211 71.22705078 C-12.04616211 70.56705078 -14.02616211 69.90705078 -16.06616211 69.22705078 C-16.19692083 61.08195965 -16.32733604 52.93686312 -16.45731354 44.79175949 C-16.51767893 41.00960777 -16.57816235 37.22745801 -16.63891602 33.4453125 C-16.69754946 29.79488814 -16.75587218 26.14445894 -16.8139801 22.49402618 C-16.83619639 21.10178704 -16.85852435 19.70954967 -16.88096619 18.31731415 C-16.91239546 16.36633267 -16.94338974 14.4153442 -16.97436523 12.46435547 C-16.99213013 11.35404968 -17.00989502 10.2437439 -17.02819824 9.09979248 C-17.05847095 6.80904365 -17.06616211 4.51799963 -17.06616211 2.22705078 C-11.26253153 0.23417637 -6.10828284 -0.04777977 0 0 Z " fill="#0156B4" transform="translate(137.066162109375,146.77294921875)"/>
<path d="M0 0 C3.38345944 1.41515265 5.82177968 3.03217482 8 6 C8.6875 8.203125 8.6875 8.203125 9 10 C3.375 13 3.375 13 0 13 C-0.495 12.34 -0.99 11.68 -1.5 11 C-5.52225189 7.78219849 -10.03534666 8.6918491 -15 9 C-15 9.66 -15 10.32 -15 11 C-15.49113281 11.39832031 -15.98226563 11.79664063 -16.48828125 12.20703125 C-18.7745924 14.91870262 -18.290638 17.21518722 -18.1875 20.6875 C-18.16042969 21.86699219 -18.13335937 23.04648438 -18.10546875 24.26171875 C-18.07066406 25.16535156 -18.03585937 26.06898438 -18 27 C-17.01 27.33 -16.02 27.66 -15 28 C-15 28.66 -15 29.32 -15 30 C-7.78888964 30.70887565 -7.78888964 30.70887565 -1.375 28.125 C0.01380394 26.06441839 0.01380394 26.06441839 1 24 C-2.63 24 -6.26 24 -10 24 C-10 21.69 -10 19.38 -10 17 C-3.4 17 3.2 17 10 17 C10 29.6 10 29.6 5.8125 34.625 C0.77103582 38.88223642 -4.12642229 40.59053625 -10.65234375 40.35546875 C-14.74797054 39.73533225 -18.57624368 38.34523688 -22 36 C-23.25390625 33.859375 -23.25390625 33.859375 -24 32 C-24.66 32 -25.32 32 -26 32 C-29.07359554 23.9318117 -30.0786577 17.45950604 -27.125 9.15234375 C-21.722505 -1.18367967 -10.29920646 -1.44809144 0 0 Z " fill="#173D6B" transform="translate(286,153)"/>
<path d="M0 0 C2.64 0 5.28 0 8 0 C8 3.63 8 7.26 8 11 C9.65 10.34 11.3 9.68 13 9 C17.80885463 8.80873874 22.31146453 9.83839817 26 13 C29.53458975 19.09412025 29.98054677 24.9886723 28.3125 31.8125 C26.28313571 35.19477381 23.49957298 37.25021351 20 39 C17.32419565 39.04315813 14.67336718 39.0453968 12 39 C10.68 39 9.36 39 8 39 C5.36 39 2.72 39 0 39 C0 26.13 0 13.26 0 0 Z M9 19 C7.9394829 23.0022822 7.9394829 23.0022822 8 27 C10.27127334 30.02409364 10.27127334 30.02409364 13 32 C15.91517292 30.92598892 17.77810176 30.22189824 20 28 C20.27920581 25.068339 20.47713387 22.84534707 20 20 C18.38451799 17.87105376 18.38451799 17.87105376 16 17 C11.95377498 16.63019987 11.95377498 16.63019987 9 19 Z " fill="#173D69" transform="translate(337,203)"/>
<path d="M0 0 C3.14024785 2.6784467 4.93792037 4.95602105 5.36425781 9.18676758 C5.42016474 12.00523924 5.38630962 14.80698673 5.3125 17.625 C5.29219727 19.09356445 5.29219727 19.09356445 5.27148438 20.59179688 C5.23625312 22.99926625 5.18699265 25.40559564 5.125 27.8125 C4.43792969 27.80089844 3.75085938 27.78929687 3.04296875 27.77734375 C2.14191406 27.76832031 1.24085938 27.75929687 0.3125 27.75 C-0.58082031 27.73839844 -1.47414063 27.72679687 -2.39453125 27.71484375 C-5.00913791 27.70240033 -5.00913791 27.70240033 -7.875 28.8125 C-15.60573666 29.23417655 -15.60573666 29.23417655 -18.875 26.8125 C-21.41574553 23.38249354 -21.31868738 19.95358223 -20.875 15.8125 C-17.85182197 11.83075333 -14.92923037 11.02334607 -10.125 10.0625 C-8.95453125 9.82015625 -7.7840625 9.5778125 -6.578125 9.328125 C-5.68609375 9.15796875 -4.7940625 8.9878125 -3.875 8.8125 C-4.535 8.1525 -5.195 7.4925 -5.875 6.8125 C-9.18183466 7.10233269 -9.18183466 7.10233269 -11.875 8.8125 C-14.54558851 8.95365161 -17.19932238 8.85497107 -19.875 8.8125 C-19.26875 3.35625 -19.26875 3.35625 -17.5625 1 C-12.73128405 -2.39974456 -5.25384005 -2.17006437 0 0 Z M-10.875 16.8125 C-11.865 18.2975 -11.865 18.2975 -12.875 19.8125 C-11.17787793 21.12109649 -11.17787793 21.12109649 -8.875 21.8125 C-6.08991684 20.67500805 -6.08991684 20.67500805 -3.875 18.8125 C-3.875 18.1525 -3.875 17.4925 -3.875 16.8125 C-7.29142759 16.56234127 -7.29142759 16.56234127 -10.875 16.8125 Z " fill="#0E3868" transform="translate(449.875,164.1875)"/>
<path d="M0 0 C2.74053819 2.39797092 4.40263561 3.95097219 4.6953125 7.66796875 C4.63020833 10.17447917 4.56510417 12.68098958 4.5 15.1875 C-1.44 15.5175 -7.38 15.8475 -13.5 16.1875 C-10.89444452 19.39032163 -10.89444452 19.39032163 -7.9375 19.5625 C-7.133125 19.43875 -6.32875 19.315 -5.5 19.1875 C-4.84 18.1975 -4.18 17.2075 -3.5 16.1875 C-1.19 16.5175 1.12 16.8475 3.5 17.1875 C4.3125 18.875 4.3125 18.875 4.5 21.1875 C1.41052294 25.51276789 -1.916295 27.27268543 -7.0234375 28.15234375 C-11.74480113 28.21936626 -15.60476761 26.80996346 -19.5 24.1875 C-22.46516698 20.65826527 -23.35629351 17.19344543 -24 12.6875 C-23.18937958 7.01315703 -21.5038394 2.71423478 -16.875 -0.8125 C-10.83154461 -2.60315345 -5.67212803 -2.93735201 0 0 Z M-11.5 5.1875 C-12.16 6.5075 -12.82 7.8275 -13.5 9.1875 C-10.53 9.1875 -7.56 9.1875 -4.5 9.1875 C-4.5 8.1975 -4.5 7.2075 -4.5 6.1875 C-6.81 5.8575 -9.12 5.5275 -11.5 5.1875 Z " fill="#173C69" transform="translate(329.5,214.8125)"/>
<path d="M0 0 C3.585461 2.94804571 4.79571287 4.48025647 5.41796875 9.109375 C5.55752307 14.98394752 5.60048716 19.14863937 2 24 C-2.52699027 27.3499728 -6.06300271 28.71273447 -11.71875 28.4609375 C-17.04953327 27.38382718 -21.02873125 24.45690313 -24 20 C-25.35425415 14.36455532 -25.28146262 9.39254802 -23 4 C-17.52205342 -2.63119849 -7.68794467 -4.69818841 0 0 Z M-12.8125 5.9375 C-15.21135783 7.86935423 -15.21135783 7.86935423 -15.9375 10.875 C-16.00588563 14.29428126 -15.88428437 16.13261075 -14 19 C-10.72369692 20.13958368 -8.88969785 20.32778342 -5.625 19.125 C-3.03490796 15.73795656 -3.68946465 12.11459336 -4 8 C-8.14399223 5.26532643 -8.14399223 5.26532643 -12.8125 5.9375 Z " fill="#234771" transform="translate(494,165)"/>
<path d="M0 0 C3.35076202 2.8580029 6.85394468 6.20619887 7.328125 10.765625 C7.43221705 15.86613552 7.0752617 19.44174192 4.125 23.8125 C3.135 24.1425 2.145 24.4725 1.125 24.8125 C1.125 25.4725 1.125 26.1325 1.125 26.8125 C-3.14400707 28.94700354 -7.17777971 29.39502929 -11.875 28.8125 C-15.92913761 27.3816279 -19.28296854 25.33320949 -21.953125 21.8828125 C-24.07454493 17.11860672 -23.67674962 11.8603156 -22.875 6.8125 C-21.27897224 3.30123892 -18.9481812 1.48707104 -15.6875 -0.5625 C-10.37691774 -1.74262939 -5.08348509 -2.09970036 0 0 Z M-13.875 8.8125 C-15.21160145 12.16842863 -15.21160145 12.16842863 -14.875 15.8125 C-12.97850449 18.95908666 -12.97850449 18.95908666 -9.875 20.8125 C-6.69055347 20.99047389 -6.69055347 20.99047389 -3.875 19.8125 C-1.52950326 16.29425489 -1.29508597 14.95474306 -1.875 10.8125 C-4.1254197 7.89459475 -4.1254197 7.89459475 -6.875 5.8125 C-9.99032786 5.8125 -11.45735424 6.89078158 -13.875 8.8125 Z " fill="#052F5F" transform="translate(320.875,164.1875)"/>
<path d="M0 0 C3.37958024 2.91019409 4.83285431 4.95246527 5.203125 9.48828125 C5.37000655 19.54289456 5.37000655 19.54289456 2 24 C-2.4864788 27.40972389 -6.06887184 28.71247317 -11.71875 28.4609375 C-17.04953327 27.38382718 -21.02873125 24.45690313 -24 20 C-24.71447223 14.53153947 -25.28651332 8.61061956 -22.796875 3.55859375 C-17.34428605 -3.03683581 -7.4978891 -4.28450806 0 0 Z M-13.3125 6.4375 C-16.31095902 8.80294757 -16.31095902 8.80294757 -16.6875 12.5 C-16.27961158 16.08363801 -16.27961158 16.08363801 -13.875 18.5 C-10.38257852 20.32213295 -8.72911656 20.04068369 -5 19 C-3.28277588 14.1884026 -3.28277588 14.1884026 -3.5625 9.1875 C-4.89240018 6.86729488 -4.89240018 6.86729488 -7.25 5.4375 C-10.16861553 4.72068993 -10.16861553 4.72068993 -13.3125 6.4375 Z " fill="#2E527E" transform="translate(373,165)"/>
<path d="M0 0 C3.69820403 1.3970993 4.7365804 2.51368689 6.625 6 C8.50492875 10.59769714 8.33272524 15.04080277 8.1875 19.9375 C8.16719727 21.24944336 8.16719727 21.24944336 8.14648438 22.58789062 C8.11144109 24.72553086 8.05764541 26.86284984 8 29 C5.03 29 2.06 29 -1 29 C-1.06058594 27.64003906 -1.12117188 26.28007812 -1.18359375 24.87890625 C-1.26798171 23.10675903 -1.35263058 21.33462423 -1.4375 19.5625 C-1.47681641 18.66466797 -1.51613281 17.76683594 -1.55664062 16.84179688 C-1.59853516 15.98779297 -1.64042969 15.13378906 -1.68359375 14.25390625 C-1.72025146 13.46314697 -1.75690918 12.6723877 -1.79467773 11.85766602 C-1.80563257 9.98598559 -1.80563257 9.98598559 -3 9 C-5.45809998 8.7499227 -5.45809998 8.7499227 -8 9 C-10.35358251 11.35358251 -10.27871904 11.92968394 -10.4140625 15.1328125 C-10.47207031 16.34130859 -10.47207031 16.34130859 -10.53125 17.57421875 C-10.57765625 18.83685547 -10.57765625 18.83685547 -10.625 20.125 C-10.68300781 21.39923828 -10.68300781 21.39923828 -10.7421875 22.69921875 C-10.83656494 24.79911684 -10.91937586 26.89952891 -11 29 C-13.97 29 -16.94 29 -20 29 C-20 19.76 -20 10.52 -20 1 C-16.7 1 -13.4 1 -10 1 C-6.79888929 -0.60055535 -3.48117737 -0.35481231 0 0 Z " fill="#577794" transform="translate(400,163)"/>
<path d="M0 0 C2.97 0 5.94 0 9 0 C7.26017648 8.26874022 5.07040445 16.4063508 2.875 24.5625 C2.49852287 25.96674996 2.12221943 27.37104649 1.74609375 28.77539062 C0.83273009 32.18413283 -0.08297946 35.5922395 -1 39 C-3.97 39 -6.94 39 -10 39 C-12.44234339 32.36724003 -14.80962826 25.72045875 -17 19 C-17.66 19.66 -18.32 20.32 -19 21 C-19 19.35 -19 17.7 -19 16 C-17.68 15.67 -16.36 15.34 -15 15 C-14.67 13.68 -14.34 12.36 -14 11 C-13.34 11 -12.68 11 -12 11 C-12 9.02 -12 7.04 -12 5 C-10.10962528 7.83556208 -9.34625138 9.83191263 -8.4375 13.0625 C-7.44027955 16.61733007 -7.44027955 16.61733007 -6 20 C-4.1089798 14.66732304 -2.5454973 9.39734186 -1.4296875 3.84765625 C-1 2 -1 2 0 0 Z " fill="#072F60" transform="translate(300,203)"/>
<path d="M0 0 C1.45742463 -0.08096803 2.91612807 -0.13917774 4.375 -0.1875 C5.18710938 -0.22230469 5.99921875 -0.25710937 6.8359375 -0.29296875 C7.55007812 -0.19628906 8.26421875 -0.09960938 9 0 C9.66 0.99 10.32 1.98 11 3 C13.05003955 4.19232613 13.05003955 4.19232613 15 5 C14.67 5.99 14.34 6.98 14 8 C13.01 7.34 12.02 6.68 11 6 C10.01 6.33 9.02 6.66 8 7 C8.9075 7.7425 9.815 8.485 10.75 9.25 C11.83362617 10.16632047 12.91696658 11.082979 14 12 C14.804375 12.66 15.60875 13.32 16.4375 14 C18 16 18 16 18 18.5 C16.81842532 21.4539367 15.45169195 22.99407022 13 25 C12.34 25 11.68 25 11 25 C10.67 25.99 10.34 26.98 10 28 C9.34 28 8.68 28 8 28 C7.67 29.32 7.34 30.64 7 32 C3.64404172 31.40072174 1.62198774 30.15377564 -1 28 C-1 28.66 -1 29.32 -1 30 C-1.66 30 -2.32 30 -3 30 C-3 29.34 -3 28.68 -3 28 C-3.66 28 -4.32 28 -5 28 C-4.29587558 22.10915626 -2.34799878 16.70895288 -0.4375 11.125 C-0.10814453 10.15046875 0.22121094 9.1759375 0.56054688 8.171875 C1.36961988 5.77983306 2.1828756 3.38930103 3 1 C2.01 0.67 1.02 0.34 0 0 Z " fill="#1894E0" transform="translate(182,168)"/>
<path d="M0 0 C3 0.125 3 0.125 4 1.125 C4.14115161 3.79558851 4.04247107 6.44932238 4 9.125 C6.31 9.125 8.62 9.125 11 9.125 C11 11.105 11 13.085 11 15.125 C8.69 15.125 6.38 15.125 4 15.125 C4 19.745 4 24.365 4 29.125 C5.98 29.125 7.96 29.125 10 29.125 C11 30.125 11 30.125 11.125 33.125 C11 36.125 11 36.125 10 37.125 C7.85546875 37.36328125 7.85546875 37.36328125 5.1875 37.4375 C4.31480469 37.47488281 3.44210937 37.51226562 2.54296875 37.55078125 C0 37.125 0 37.125 -2.30859375 35.68359375 C-4.84769645 31.84268782 -4.43252506 28.36792449 -4.25 23.875 C-4.23195313 23.03453125 -4.21390625 22.1940625 -4.1953125 21.328125 C-4.14830798 19.25992605 -4.07656724 17.19231559 -4 15.125 C-5.65 15.125 -7.3 15.125 -9 15.125 C-9 13.145 -9 11.165 -9 9.125 C-7.35 9.125 -5.7 9.125 -4 9.125 C-4.020625 7.825625 -4.04125 6.52625 -4.0625 5.1875 C-4.08399454 3.83334367 -4.07148199 2.47743917 -4 1.125 C-3 0.125 -3 0.125 0 0 Z " fill="#244773" transform="translate(417,154.875)"/>
<path d="M0 0 C0 2.64 0 5.28 0 8 C-1.7015625 8.2165625 -1.7015625 8.2165625 -3.4375 8.4375 C-6.80777201 8.61171478 -6.80777201 8.61171478 -8 10 C-8.15582303 11.34015221 -8.25044142 12.68758903 -8.31640625 14.03515625 C-8.35830078 14.84404297 -8.40019531 15.65292969 -8.44335938 16.48632812 C-8.48267578 17.33646484 -8.52199219 18.18660156 -8.5625 19.0625 C-8.60568359 19.91650391 -8.64886719 20.77050781 -8.69335938 21.65039062 C-8.79976702 23.76672037 -8.90041731 25.88333813 -9 28 C-11.97 28 -14.94 28 -18 28 C-18 18.76 -18 9.52 -18 0 C-15.40125 -0.185625 -12.8025 -0.37125 -10.125 -0.5625 C-9.30789551 -0.62381104 -8.49079102 -0.68512207 -7.64892578 -0.74829102 C-2.22222222 -1.11111111 -2.22222222 -1.11111111 0 0 Z " fill="#063063" transform="translate(348,164)"/>
<path d="M0 0 C2.97 0 5.94 0 9 0 C9 12.87 9 25.74 9 39 C6.36 39 3.72 39 1 39 C-0.61301773 35.77396455 -0.12053599 32.25289962 -0.09765625 28.7109375 C-0.0962413 27.89251373 -0.09482635 27.07408997 -0.09336853 26.23086548 C-0.0877629 23.61220675 -0.07520948 20.99363296 -0.0625 18.375 C-0.05748572 16.60156373 -0.05292269 14.82812613 -0.04882812 13.0546875 C-0.03779164 8.70309218 -0.02052325 4.3515605 0 0 Z " fill="#063265" transform="translate(458,153)"/>
<path d="M0 0 C0.66 0.33 1.32 0.66 2 1 C2.01213028 2.17057953 2.01213028 2.17057953 2.02450562 3.36480713 C2.10246943 10.72178065 2.18976535 18.07855634 2.28752708 25.43529129 C2.33745784 29.21740302 2.38378803 32.99948726 2.421875 36.78173828 C2.45876871 40.43231047 2.5051395 44.08265085 2.55806351 47.7330246 C2.5765858 49.12522055 2.59170178 50.51746615 2.60334396 51.90973663 C2.62024268 53.86082207 2.65041171 55.81177887 2.68115234 57.76269531 C2.69447601 58.8730011 2.70779968 59.98330688 2.7215271 61.1272583 C2.99908801 63.99059184 3.68400701 65.50225637 5 68 C5 69.32 5 70.64 5 72 C5.99 72.33 6.98 72.66 8 73 C8 73.66 8 74.32 8 75 C6.1128125 75.309375 6.1128125 75.309375 4.1875 75.625 C0.72251405 76.48818554 0.19657499 76.71464921 -1.9375 79.8125 C-2.85173018 82.55519054 -3.57979684 85.14261848 -4 88 C-5.32 88 -6.64 88 -8 88 C-8 88.99 -8 89.98 -8 91 C-8.66 91 -9.32 91 -10 91 C-9.3470368 86.93153697 -7.20914312 83.74332963 -5.0625 80.3125 C-4.70220703 79.71888672 -4.34191406 79.12527344 -3.97070312 78.51367188 C-1.25496749 74.12748374 -1.25496749 74.12748374 1 73 C0.49396008 70.83125748 0.00016187 69.00032373 -1 67 C-1.09679439 64.91187208 -1.12796702 62.82059428 -1.12939453 60.73022461 C-1.13254669 59.41223373 -1.13569885 58.09424286 -1.13894653 56.73631287 C-1.13715689 55.29165616 -1.13510597 53.84699975 -1.1328125 52.40234375 C-1.13348577 50.92786137 -1.13445599 49.4533791 -1.13571167 47.97889709 C-1.13718708 44.8878575 -1.13503881 41.79684679 -1.13037109 38.70581055 C-1.1246689 34.7353508 -1.12795689 30.76495858 -1.13394356 26.7945013 C-1.13754914 23.74999987 -1.13641069 20.70551456 -1.13381577 17.66101265 C-1.13314675 16.1965185 -1.13397405 14.7320229 -1.13629532 13.26753044 C-1.1388223 11.22514752 -1.13429088 9.18275948 -1.12939453 7.14038086 C-1.12859894 5.97615097 -1.12780334 4.81192108 -1.12698364 3.6124115 C-1 1 -1 1 0 0 Z " fill="#4278BC" transform="translate(119,152)"/>
<path d="M0 0 C0.90292282 -0.00419449 1.80584564 -0.00838898 2.73612976 -0.01271057 C3.71913559 -0.00709106 4.70214142 -0.00147156 5.7149353 0.00431824 C6.75593887 0.00241989 7.79694244 0.00052155 8.86949158 -0.00143433 C12.31202717 -0.00514052 15.75435204 0.00555892 19.1968689 0.01676941 C21.5853269 0.01796127 23.97378537 0.01841436 26.36224365 0.01815796 C31.36736994 0.01972249 36.37242467 0.02801085 41.37753296 0.04142761 C47.80507136 0.05843572 54.23253122 0.06224141 60.66008949 0.06148243 C65.5910111 0.06175383 70.5219154 0.06722988 75.45283127 0.07448387 C77.82360071 0.07767389 80.19437211 0.07963872 82.56514359 0.08037758 C85.87161884 0.08253657 89.17800938 0.09127076 92.48446655 0.10197449 C93.96504799 0.10129471 93.96504799 0.10129471 95.47554016 0.1006012 C96.37282333 0.10486618 97.27010651 0.10913116 98.19458008 0.11352539 C99.36760398 0.11603916 99.36760398 0.11603916 100.56432533 0.11860371 C102.4703064 0.24723816 102.4703064 0.24723816 104.4703064 1.24723816 C105.0953064 3.80973816 105.0953064 3.80973816 105.4703064 6.24723816 C103.5328064 5.87223816 103.5328064 5.87223816 101.4703064 5.24723816 C100.9753064 4.25723816 100.9753064 4.25723816 100.4703064 3.24723816 C87.14440212 3.2240666 73.81850264 3.20629848 60.49258232 3.19542599 C54.30481123 3.19020772 48.11705393 3.18312918 41.92929077 3.17179871 C35.95763132 3.16093239 29.98598513 3.15495336 24.01431656 3.15236092 C21.73616451 3.15051343 19.45801319 3.14690579 17.17986679 3.1415081 C13.98874087 3.13424805 10.79766972 3.13324932 7.60653687 3.13371277 C6.66498245 3.13011749 5.72342804 3.12652222 4.75334167 3.12281799 C0.2086062 3.12995875 -4.05742224 3.31572883 -8.5296936 4.24723816 C-8.5296936 3.58723816 -8.5296936 2.92723816 -8.5296936 2.24723816 C-5.55142743 0.53936068 -3.42202563 -0.00238155 0 0 Z " fill="#709BCD" transform="translate(129.52969360351563,144.7527618408203)"/>
<path d="M0 0 C6 0 12 0 18 0 C17.67 0.66 17.34 1.32 17 2 C16.01 1.67 15.02 1.34 14 1 C14.66 1.66 15.32 2.32 16 3 C16 3.99 16 4.98 16 6 C13.33333333 6 10.66666667 6 8 6 C7.11360611 8.65918166 6.82010975 10.48064641 6.68359375 13.23046875 C6.64169922 14.03291016 6.59980469 14.83535156 6.55664062 15.66210938 C6.51732422 16.49548828 6.47800781 17.32886719 6.4375 18.1875 C6.39431641 19.03248047 6.35113281 19.87746094 6.30664062 20.74804688 C6.20068482 22.83184433 6.0998498 24.91590103 6 27 C4.02 27 2.04 27 0 27 C0 18.09 0 9.18 0 0 Z " fill="#0A2852" transform="translate(381,164)"/>
<path d="M0 0 C3.28615793 2.42137953 5.4742879 4.19616983 7 8 C7.7845772 13.60412289 7.22283955 18.22542289 4 23 C3.01 23.33 2.02 23.66 1 24 C1 24.66 1 25.32 1 26 C-3.49656104 28.24828052 -7.07872966 28.16682272 -12 28 C-12 27.34 -12 26.68 -12 26 C-9.03 25.67 -6.06 25.34 -3 25 C-3.66 24.01 -4.32 23.02 -5 22 C-5.66 22 -6.32 22 -7 22 C-7 21.01 -7 20.02 -7 19 C-6.01 19 -5.02 19 -4 19 C-2.64804406 12.70877581 -2.64804406 12.70877581 -4.9375 6.9375 C-5.618125 6.298125 -6.29875 5.65875 -7 5 C-6.34 5 -5.68 5 -5 5 C-5 4.34 -5 3.68 -5 3 C-4.34 3 -3.68 3 -3 3 C-3 3.99 -3 4.98 -3 6 C-2.01 6.33 -1.02 6.66 0 7 C0 7.66 0 8.32 0 9 C0.99 9 1.98 9 3 9 C2.67 7.02 2.34 5.04 2 3 C1.34 3 0.68 3 0 3 C0 2.01 0 1.02 0 0 Z " fill="#264870" transform="translate(321,165)"/>
<path d="M0 0 C-0.66 0.66 -1.32 1.32 -2 2 C-1.236875 2.12375 -0.47375 2.2475 0.3125 2.375 C3 3 3 3 6 5 C6 9 6 9 4.5 10.75 C4.005 11.1625 3.51 11.575 3 12 C3.99 12.66 4.98 13.32 6 14 C5.67 14.99 5.34 15.98 5 17 C0.91105085 18.72994003 -4.14676794 18.60104824 -8.3125 17.25 C-10.49709737 15.63177973 -11.15712242 14.59887253 -12 12 C-12.65766739 5.86177106 -12.65766739 5.86177106 -10.1875 2.625 C-6.78599064 0.09816448 -4.11631408 -0.11125173 0 0 Z M-2 6 C-2.99 7.485 -2.99 7.485 -4 9 C-2.30287793 10.30859649 -2.30287793 10.30859649 0 11 C2.78508316 9.86250805 2.78508316 9.86250805 5 8 C5 7.34 5 6.68 5 6 C1.58357241 5.74984127 1.58357241 5.74984127 -2 6 Z " fill="#3C597F" transform="translate(441,175)"/>
<path d="M0 0 C2.64 0 5.28 0 8 0 C10.42080258 6.9165788 12.29977612 13.87352969 14 21 C14.99 18.03 15.98 15.06 17 12 C18.34629425 16.03888274 17.73750569 19.13237916 16 23 C13.375 24.5 13.375 24.5 11 25 C10.67 23.35 10.34 21.7 10 20 C9.34 20.33 8.68 20.66 8 21 C8 19.02 8 17.04 8 15 C7.01 15 6.02 15 5 15 C5.556875 16.36125 5.556875 16.36125 6.125 17.75 C7 21 7 21 6.0546875 23.203125 C5.70664062 23.79609375 5.35859375 24.3890625 5 25 C3.96766664 21.21136771 2.95109686 17.41868404 1.9375 13.625 C1.64294922 12.54476562 1.34839844 11.46453125 1.04492188 10.3515625 C0.77099609 9.3203125 0.49707031 8.2890625 0.21484375 7.2265625 C-0.04176025 6.27346191 -0.29836426 5.32036133 -0.56274414 4.33837891 C-1 2 -1 2 0 0 Z " fill="#294C75" transform="translate(258,203)"/>
<path d="M0 0 C2.32724184 3.49086277 3.13427859 6.70893324 4.21875 10.72265625 C4.86922513 13.16215534 4.86922513 13.16215534 7 15 C6.98252112 17.59269983 6.86231408 20.0525154 6.625 22.625 C6.56828125 23.33140625 6.5115625 24.0378125 6.453125 24.765625 C6.31159079 26.51121361 6.15702613 28.25573673 6 30 C4.35 30.33 2.7 30.66 1 31 C0.65066406 29.85660156 0.30132812 28.71320313 -0.05859375 27.53515625 C-0.51806463 26.04422012 -0.97770901 24.55333745 -1.4375 23.0625 C-1.66759766 22.30775391 -1.89769531 21.55300781 -2.13476562 20.77539062 C-3.03001736 17.09791548 -3.03001736 17.09791548 -5 14 C-5.66 14.66 -6.32 15.32 -7 16 C-7 14.35 -7 12.7 -7 11 C-5.68 10.67 -4.36 10.34 -3 10 C-2.67 8.68 -2.34 7.36 -2 6 C-1.34 6 -0.68 6 0 6 C0 4.02 0 2.04 0 0 Z " fill="#29507E" transform="translate(288,208)"/>
<path d="M0 0 C2.48828125 0.63671875 2.48828125 0.63671875 4.3203125 2.4921875 C5.48828125 4.63671875 5.48828125 4.63671875 5.48828125 7.63671875 C4.60140625 7.57484375 3.71453125 7.51296875 2.80078125 7.44921875 C-1.14637737 7.67264282 -2.55756952 7.9935326 -5.51171875 10.63671875 C-7.11658136 13.88303692 -8.35966755 17.20630931 -9.51171875 20.63671875 C-10.50171875 20.63671875 -11.49171875 20.63671875 -12.51171875 20.63671875 C-12.84171875 18.98671875 -13.17171875 17.33671875 -13.51171875 15.63671875 C-13.84171875 15.63671875 -14.17171875 15.63671875 -14.51171875 15.63671875 C-15.01889077 10.81858454 -15.07308862 7.66343041 -12.19921875 3.63671875 C-8.59043795 -0.13609754 -5.01160312 -0.09011181 0 0 Z " fill="#0B305E" transform="translate(363.51171875,163.36328125)"/>
<path d="M0 0 C0.33 0 0.66 0 1 0 C1.02312737 8.06652174 1.04091709 16.13302972 1.05181217 24.19957638 C1.05704014 27.94483037 1.06413622 31.69006176 1.07543945 35.43530273 C1.08627141 39.04681687 1.09227749 42.65830921 1.09487724 46.26983833 C1.09673094 47.65060329 1.10035049 49.031367 1.10573006 50.41212273 C1.11294447 52.33975952 1.11340809 54.26741807 1.11352539 56.19506836 C1.115746 57.29427109 1.11796661 58.39347382 1.12025452 59.52598572 C1 62 1 62 0 63 C-3.13559886 63.09534958 -6.24913613 63.12550879 -9.38500977 63.11352539 C-10.86289474 63.11374443 -10.86289474 63.11374443 -12.37063599 63.1139679 C-15.64424807 63.11326832 -18.91780404 63.10547385 -22.19140625 63.09765625 C-24.45442168 63.09579223 -26.71743751 63.09436825 -28.98045349 63.09336853 C-34.94978948 63.0895421 -40.91910132 63.07971075 -46.88842773 63.06866455 C-52.97444329 63.05845312 -59.06046273 63.05387149 -65.14648438 63.04882812 C-77.09766689 63.03808859 -89.04883144 63.02101068 -101 63 C-101 62.67 -101 62.34 -101 62 C-68.66 61.67 -36.32 61.34 -3 61 C-1.21701647 54.02832565 -1.21701647 54.02832565 -0.68115234 47.2265625 C-0.66128265 46.16606689 -0.64141296 45.10557129 -0.62094116 44.01293945 C-0.60938995 42.89491943 -0.59783875 41.77689941 -0.5859375 40.625 C-0.56657135 39.4599292 -0.5472052 38.2948584 -0.5272522 37.09448242 C-0.46777476 33.39639462 -0.42119836 29.69827515 -0.375 26 C-0.33679095 23.48305982 -0.29773754 20.9661323 -0.2578125 18.44921875 C-0.16209947 12.29959213 -0.07695986 6.14988837 0 0 Z " fill="#056FCE" transform="translate(229,154)"/>
<path d="M0 0 C1.65 0 3.3 0 5 0 C8.90281671 7.80563342 8.27891493 15.48792953 8 24 C5.36 24 2.72 24 0 24 C-0.19682269 20.56296699 -0.38085152 17.12536573 -0.5625 13.6875 C-0.61857422 12.71103516 -0.67464844 11.73457031 -0.73242188 10.72851562 C-0.78076172 9.79072266 -0.82910156 8.85292969 -0.87890625 7.88671875 C-0.9260376 7.02264404 -0.97316895 6.15856934 -1.02172852 5.26831055 C-1 3 -1 3 0 0 Z " fill="#123A69" transform="translate(399,168)"/>
<path d="M0 0 C3 1.25 3 1.25 5 4.25 C5.62489744 9.15728284 5.40036451 13.84933173 3 18.25 C2.34 18.91 1.68 19.57 1 20.25 C-0.65 20.25 -2.3 20.25 -4 20.25 C-4.33 13.65 -4.66 7.05 -5 0.25 C-3 -0.75 -3 -0.75 0 0 Z " fill="#133D6E" transform="translate(361,218.75)"/>
<path d="M0 0 C0.7528125 -0.01417969 1.505625 -0.02835938 2.28125 -0.04296875 C4.74864173 0.21332722 6.36356256 0.95904847 8.5 2.1875 C8.5 4.4975 8.5 6.8075 8.5 9.1875 C6.125 9.8125 6.125 9.8125 3.5 10.1875 C2.84 9.5275 2.18 8.8675 1.5 8.1875 C-1.80683466 8.47733269 -1.80683466 8.47733269 -4.5 10.1875 C-7.17058851 10.32865161 -9.82432238 10.22997107 -12.5 10.1875 C-11.89375 4.73125 -11.89375 4.73125 -10.1875 2.375 C-7.07671957 0.18593229 -3.72308062 0.03187569 0 0 Z " fill="#254772" transform="translate(442.5,162.8125)"/>
<path d="M0 0 C-0.28382946 1.75128818 -0.57739529 3.50100003 -0.875 5.25 C-1.03742188 6.22453125 -1.19984375 7.1990625 -1.3671875 8.203125 C-2 11 -2 11 -4 15 C-6.97 15 -9.94 15 -13 15 C-13.66 11.37 -14.32 7.74 -15 4 C-14.67 4.66 -14.34 5.32 -14 6 C-13.34 6 -12.68 6 -12 6 C-11.67 4.68 -11.34 3.36 -11 2 C-9.68 2.33 -8.36 2.66 -7 3 C-6.67 2.01 -6.34 1.02 -6 0 C-3.50907189 -1.24546405 -2.58919267 -0.7767578 0 0 Z " fill="#052F64" transform="translate(280,227)"/>
<path d="M0 0 C0.33 0 0.66 0 1 0 C1 4.29 1 8.58 1 13 C2.98 13 4.96 13 7 13 C8 14 8 14 8.125 17 C8 20 8 20 7 21 C4.85546875 21.23828125 4.85546875 21.23828125 2.1875 21.3125 C0.87845703 21.36857422 0.87845703 21.36857422 -0.45703125 21.42578125 C-3 21 -3 21 -5.30859375 19.40234375 C-7.56512925 16.19733375 -7.4051712 14.12928001 -7.25 10.25 C-7.21390625 9.07953125 -7.1778125 7.9090625 -7.140625 6.703125 C-7.09421875 5.81109375 -7.0478125 4.9190625 -7 4 C-6.67 4 -6.34 4 -6 4 C-5.67 5.65 -5.34 7.3 -5 9 C-4.01 8.34 -3.02 7.68 -2 7 C-1.67 7.66 -1.34 8.32 -1 9 C-0.67 6.03 -0.34 3.06 0 0 Z " fill="#244876" transform="translate(420,171)"/>
<path d="M0 0 C0.66 0.33 1.32 0.66 2 1 C2 1.66 2 2.32 2 3 C3.74965358 3.05429959 5.49979787 3.09292823 7.25 3.125 C8.22453125 3.14820313 9.1990625 3.17140625 10.203125 3.1953125 C13.0196498 2.99862781 14.60949036 2.44568916 17 1 C16.67 2.65 16.34 4.3 16 6 C15.34 6 14.68 6 14 6 C14 6.66 14 7.32 14 8 C13.01 8.33 12.02 8.66 11 9 C14.37705625 8.46274105 17.696686 7.88935377 21 7 C20 10 20 10 17 11.6875 C10.64107262 14.12725173 5.12381763 13.72897214 -1.0625 11 C-2.38323174 10.3497936 -3.69904394 9.68892236 -5 9 C-5 8.67 -5 8.34 -5 8 C-3.02 8 -1.04 8 1 8 C1 7.34 1 6.68 1 6 C1.66 6 2.32 6 3 6 C3 5.34 3 4.68 3 4 C2.34 4 1.68 4 1 4 C0.67 2.68 0.34 1.36 0 0 Z " fill="#284D75" transform="translate(269,180)"/>
<path d="M0 0 C0.86625 -0.00257813 1.7325 -0.00515625 2.625 -0.0078125 C5 0.125 5 0.125 8 1.125 C8 2.445 8 3.765 8 5.125 C8.66 5.125 9.32 5.125 10 5.125 C10.33 7.105 10.66 9.085 11 11.125 C10.01 11.125 9.02 11.125 8 11.125 C8 10.465 8 9.805 8 9.125 C6.68 8.795 5.36 8.465 4 8.125 C4.33 7.135 4.66 6.145 5 5.125 C4.34 5.125 3.68 5.125 3 5.125 C3 5.785 3 6.445 3 7.125 C2.36191406 7.31835938 1.72382813 7.51171875 1.06640625 7.7109375 C-0.17302734 8.10152344 -0.17302734 8.10152344 -1.4375 8.5 C-2.26121094 8.75523437 -3.08492188 9.01046875 -3.93359375 9.2734375 C-6.17798016 9.93382227 -6.17798016 9.93382227 -7 12.125 C-7.66 10.475 -8.32 8.825 -9 7.125 C-8.34 7.125 -7.68 7.125 -7 7.125 C-6.34 5.475 -5.68 3.825 -5 2.125 C-6.98 2.785 -8.96 3.445 -11 4.125 C-7.65861159 0.46538413 -4.84515589 -0.01442011 0 0 Z " fill="#073062" transform="translate(313,162.875)"/>
<path d="M0 0 C2.97 0 5.94 0 9 0 C9 12.87 9 25.74 9 39 C6.36 39 3.72 39 1 39 C1 38.67 1 38.34 1 38 C2.98 38 4.96 38 7 38 C7 26.45 7 14.9 7 3 C6.01 3 5.02 3 4 3 C2.52793987 5.94412027 2.76192808 8.96285915 2.68359375 12.1953125 C2.66281265 12.90275604 2.64203156 13.61019958 2.62062073 14.33908081 C2.55518922 16.60095425 2.49627026 18.86294462 2.4375 21.125 C2.39430867 22.65756422 2.35069418 24.19011657 2.30664062 25.72265625 C2.19951445 29.48165073 2.0982291 33.24076292 2 37 C1.67 37 1.34 37 1 37 C0.67 24.79 0.34 12.58 0 0 Z " fill="#435C7A" transform="translate(458,153)"/>
<path d="M0 0 C0.33 0 0.66 0 1 0 C1.103125 1.216875 1.20625 2.43375 1.3125 3.6875 C1.76355692 7.43525234 2.86866555 9.84933169 5 13 C5 13.66 5 14.32 5 15 C5.66 15 6.32 15 7 15 C7 15.66 7 16.32 7 17 C6.34 17 5.68 17 5 17 C5 17.66 5 18.32 5 19 C2.69 19 0.38 19 -2 19 C-2.33 18.01 -2.66 17.02 -3 16 C-3.66 16 -4.32 16 -5 16 C-6.31157516 13.37684968 -5.89649988 11.76966564 -5.5625 8.875 C-5.46066406 7.96492187 -5.35882813 7.05484375 -5.25390625 6.1171875 C-5.17011719 5.41851562 -5.08632813 4.71984375 -5 4 C-4.01 3.67 -3.02 3.34 -2 3 C-1.34 2.01 -0.68 1.02 0 0 Z " fill="#082F60" transform="translate(265,169)"/>
<path d="M0 0 C1.32 0.33 2.64 0.66 4 1 C2.515 2.485 2.515 2.485 1 4 C12.88 4 24.76 4 37 4 C37.33 3.34 37.66 2.68 38 2 C38.5625 3.9375 38.5625 3.9375 39 6 C38 7 38 7 34.21459961 7.11352539 C32.52717271 7.11336622 30.83974095 7.10766917 29.15234375 7.09765625 C27.82270348 7.09553383 27.82270348 7.09553383 26.46620178 7.09336853 C23.62326746 7.08775215 20.78041069 7.07519691 17.9375 7.0625 C16.01497509 7.05748711 14.09244896 7.05292384 12.16992188 7.04882812 C7.44658451 7.03777741 2.72330542 7.02050183 -2 7 C-1.42415568 4.61435923 -0.77772405 2.33317216 0 0 Z " fill="#55A7E2" transform="translate(159,239)"/>
<path d="M0 0 C2.97 0 5.94 0 9 0 C7.75471089 5.69275021 6.43747278 11.3527855 5 17 C2.49962266 14.82575883 1.56371414 13.26954202 1 10 C0.67 11.65 0.34 13.3 0 15 C-0.99 15 -1.98 15 -3 15 C-3.33 16.65 -3.66 18.3 -4 20 C-5.3122649 16.06320531 -4.22376266 13.28316932 -3.125 9.4375 C-2.84462891 8.40979492 -2.84462891 8.40979492 -2.55859375 7.36132812 C-1.16771978 2.33543956 -1.16771978 2.33543956 0 0 Z " fill="#244776" transform="translate(300,203)"/>
<path d="M0 0 C0.66 3.3 1.32 6.6 2 10 C2.99 10.33 3.98 10.66 5 11 C4.67 12.32 4.34 13.64 4 15 C5.32 15.33 6.64 15.66 8 16 C6.72125 16.144375 5.4425 16.28875 4.125 16.4375 C1.74307106 16.70642746 0.15547309 16.92226346 -2 18 C-2.66 17.67 -3.32 17.34 -4 17 C-4.33333333 15.33333333 -4.66666667 13.66666667 -5 12 C-5.66 11.67 -6.32 11.34 -7 11 C-7.20086443 7.28400809 -7.1519437 6.22791555 -5 3 C-1.33333333 0 -1.33333333 0 0 0 Z " fill="#1C416B" transform="translate(478,173)"/>
<path d="M0 0 C1 3 1 3 0 6 C0.66 6.66 1.32 7.32 2 8 C2.125 10.625 2.125 10.625 2 13 C1.38125 13.144375 0.7625 13.28875 0.125 13.4375 C-2.03258322 13.93152225 -2.03258322 13.93152225 -4 15 C-4.33 15.66 -4.66 16.32 -5 17 C-6.32 16.67 -7.64 16.34 -9 16 C-9.33 16.99 -9.66 17.98 -10 19 C-10.66 19 -11.32 19 -12 19 C-12 18.34 -12 17.68 -12 17 C-12.66 17 -13.32 17 -14 17 C-13.979375 15.783125 -13.95875 14.56625 -13.9375 13.3125 C-13.93175884 10.08022678 -14.21233685 7.15065259 -15 4 C-13.68 3.67 -12.36 3.34 -11 3 C-11 4.98 -11 6.96 -11 9 C-10.34 8.34 -9.68 7.68 -9 7 C-9 9.31 -9 11.62 -9 14 C-6.98968814 13.39303976 -6.98968814 13.39303976 -5 12 C-3.93854499 9.40338393 -3.93854499 9.40338393 -3.375 6.4375 C-2.97144819 4.61202153 -2.52424886 2.79454418 -2 1 C-1.34 0.67 -0.68 0.34 0 0 Z M-2 9 C-1.67 9.66 -1.34 10.32 -1 11 C-0.67 10.34 -0.34 9.68 0 9 C-0.66 9 -1.32 9 -2 9 Z " fill="#072D5D" transform="translate(278,214)"/>
<path d="M0 0 C6.38212901 -0.25027957 11.18788287 -0.42154531 16.25 3.9375 C19.66018124 7.95664217 19.26102495 12.23429693 19.234375 17.2578125 C18.94119165 20.68805773 17.86490027 23.12494541 16 26 C15.375 24.25 15.375 24.25 15 22 C15.6492959 20.65812182 16.31731862 19.32520503 17 18 C17.22882421 14.87273585 17.0012505 13.0037515 16 10 C14.35 9.67 12.7 9.34 11 9 C11 10.65 11 12.3 11 14 C9 11 9 11 9 9 C7.68 8.34 6.36 7.68 5 7 C6.32 7 7.64 7 9 7 C9 6.01 9 5.02 9 4 C6.03 3.01 3.06 2.02 0 1 C0 0.67 0 0.34 0 0 Z " fill="#31537B" transform="translate(359,163)"/>
<path d="M0 0 C1.051875 0.928125 1.051875 0.928125 2.125 1.875 C4.88625017 4.16162758 4.88625017 4.16162758 8.25 5 C9.1575 5.33 10.065 5.66 11 6 C11.671875 8.0625 11.671875 8.0625 12 10 C1.95516413 12.64798505 1.95516413 12.64798505 -2 11 C-4.8125 8.4375 -4.8125 8.4375 -7 6 C-6.67 5.34 -6.34 4.68 -6 4 C-4.35 4 -2.7 4 -1 4 C-0.67 2.68 -0.34 1.36 0 0 Z " fill="#1C3F6B" transform="translate(306,180)"/>
<path d="M0 0 C0.33 0 0.66 0 1 0 C1 3.63 1 7.26 1 11 C2.65 10.34 4.3 9.68 6 9 C10.84036881 8.80748533 15.22630314 9.89224965 19 13 C20.3125 15.6875 20.3125 15.6875 21 18 C19.88625 17.67 18.7725 17.34 17.625 17 C14.30540283 15.911357 14.30540283 15.911357 12 16 C12.33 17.32 12.66 18.64 13 20 C12.195625 19.4740625 12.195625 19.4740625 11.375 18.9375 C8.19296594 17.68143392 6.25787048 18.07929747 3 19 C2.34 19.99 1.68 20.98 1 22 C0.67 20.35 0.34 18.7 0 17 C2.97 16.34 5.94 15.68 9 15 C9.33 13.68 9.66 12.36 10 11 C6.7 11.66 3.4 12.32 0 13 C0 8.71 0 4.42 0 0 Z " fill="#547092" transform="translate(344,203)"/>
<path d="M0 0 C0.66 0 1.32 0 2 0 C2 0.99 2 1.98 2 3 C2.99 3.33 3.98 3.66 5 4 C5.58360155 10.34666686 6.14491482 16.62374778 6 23 C1.50343896 25.24828052 -2.07872966 25.16682272 -7 25 C-7 24.34 -7 23.68 -7 23 C-4.03 22.67 -1.06 22.34 2 22 C1.34 21.01 0.68 20.02 0 19 C-0.66 19 -1.32 19 -2 19 C-2 18.01 -2 17.02 -2 16 C-1.01 16 -0.02 16 1 16 C2.35195594 9.70877581 2.35195594 9.70877581 0.0625 3.9375 C-0.618125 3.298125 -1.29875 2.65875 -2 2 C-1.34 2 -0.68 2 0 2 C0 1.34 0 0.68 0 0 Z " fill="#254C7A" transform="translate(316,168)"/>
<path d="M0 0 C2.31 0.33 4.62 0.66 7 1 C7.8125 2.6875 7.8125 2.6875 8 5 C4.74828848 9.55239613 1.40948759 10.78335369 -3.81640625 11.93359375 C-6.41640741 12.01266355 -7.79564245 11.32461395 -10 10 C-6.535 9.505 -6.535 9.505 -3 9 C-3.75150023 5.72226496 -3.75150023 5.72226496 -7 4 C-5.5459375 3.566875 -5.5459375 3.566875 -4.0625 3.125 C-0.89335797 2.35785318 -0.89335797 2.35785318 0 0 Z " fill="#426082" transform="translate(326,231)"/>
<path d="M0 0 C0.66 0 1.32 0 2 0 C4.05076648 6.15229943 3.36013736 12.09965659 1 18 C-1.31 18.33 -3.62 18.66 -6 19 C-5.690625 18.030625 -5.38125 17.06125 -5.0625 16.0625 C-3.82032903 11.76335509 -3.38315147 7.44657366 -3 3 C-2.34 3 -1.68 3 -1 3 C-0.67 2.01 -0.34 1.02 0 0 Z " fill="#052F61" transform="translate(494,170)"/>
<path d="M0 0 C0.66 0.33 1.32 0.66 2 1 C1.38722388 3.96175123 0.74627478 5.38058783 -1 8 C0.98 8.495 0.98 8.495 3 9 C3.33 10.32 3.66 11.64 4 13 C4.99 13 5.98 13 7 13 C6.67 11.68 6.34 10.36 6 9 C8.64 8.34 11.28 7.68 14 7 C13.67 8.32 13.34 9.64 13 11 C13.99 11.33 14.98 11.66 16 12 C15.67 12.99 15.34 13.98 15 15 C10.91105085 16.72994003 5.85323206 16.60104824 1.6875 15.25 C-0.49709737 13.63177973 -1.15712242 12.59887253 -2 10 C-2.44444444 3.66666667 -2.44444444 3.66666667 0 0 Z " fill="#476586" transform="translate(431,177)"/>
<path d="M0 0 C1.85486952 2.78230428 2.72462112 4.84363607 3.6875 8 C3.95949219 8.86625 4.23148437 9.7325 4.51171875 10.625 C5 13 5 13 4 16 C3.01 16 2.02 16 1 16 C0.34 18.31 -0.32 20.62 -1 23 C-1.33 23 -1.66 23 -2 23 C-2.99 20.03 -3.98 17.06 -5 14 C-5.66 14.66 -6.32 15.32 -7 16 C-7 14.35 -7 12.7 -7 11 C-5.68 10.67 -4.36 10.34 -3 10 C-2.67 8.68 -2.34 7.36 -2 6 C-1.34 6 -0.68 6 0 6 C0 4.02 0 2.04 0 0 Z " fill="#274976" transform="translate(288,208)"/>
<path d="M0 0 C1 3 1 3 1 6 C2.65 6 4.3 6 6 6 C6.33 4.02 6.66 2.04 7 0 C7.66 1.32 8.32 2.64 9 4 C2.71118304 10.63819568 2.71118304 10.63819568 -2.25390625 11.30078125 C-3.01574219 11.30464844 -3.77757812 11.30851563 -4.5625 11.3125 C-5.70912109 11.33763672 -5.70912109 11.33763672 -6.87890625 11.36328125 C-9.47897923 10.91796488 -10.34831388 9.99996498 -12 8 C-10 7 -10 7 -6 7 C-6 5.68 -6 4.36 -6 3 C-4.02 2.01 -2.04 1.02 0 0 Z " fill="#3D5C80" transform="translate(489,182)"/>
<path d="M0 0 C2.31 0.66 4.62 1.32 7 2 C7.05422947 3.4370809 7.09289723 4.87475462 7.125 6.3125 C7.14820313 7.11300781 7.17140625 7.91351563 7.1953125 8.73828125 C7 11 7 11 5 14 C4.67 14.66 4.34 15.32 4 16 C2.35 15.67 0.7 15.34 -1 15 C-1.02685412 12.68756208 -1.04632841 10.3750373 -1.0625 8.0625 C-1.07410156 6.77472656 -1.08570313 5.48695313 -1.09765625 4.16015625 C-1 1 -1 1 0 0 Z " fill="#083163" transform="translate(370,171)"/>
<path d="M0 0 C6.6 0 13.2 0 20 0 C20 3.3 20 6.6 20 10 C19.34 10 18.68 10 18 10 C18 7.69 18 5.38 18 3 C13.21355271 2.91747505 8.68395246 2.85757257 4 4 C3.67 4.66 3.34 5.32 3 6 C2.34 6 1.68 6 1 6 C0.67 4.02 0.34 2.04 0 0 Z " fill="#415B7D" transform="translate(276,170)"/>
<path d="M0 0 C2.046875 3.71875 2.046875 3.71875 1.625 6.25 C1.41875 6.8275 1.2125 7.405 1 8 C1.99 8 2.98 8 4 8 C4 9.32 4 10.64 4 12 C6.475 12.99 6.475 12.99 9 14 C9 14.66 9 15.32 9 16 C5.55507356 15.13876839 3.28932578 14.24481412 0.5625 11.9375 C-1.65198364 7.77427075 -0.90316808 4.50602335 0 0 Z M6 0 C6.33 0 6.66 0 7 0 C7.268125 0.928125 7.53625 1.85625 7.8125 2.8125 C8.91148371 5.76240366 9.62418561 7.05615186 12 9 C8.37673261 10.2077558 7.35853631 9.54311128 4 8 C4.66 5.36 5.32 2.72 6 0 Z " fill="#385579" transform="translate(350,176)"/>
<path d="M0 0 C1.04005702 3.38018531 1.08004482 6.4780279 1 10 C1.66 10 2.32 10 3 10 C3.33 8.68 3.66 7.36 4 6 C4.66 6 5.32 6 6 6 C6 4.35 6 2.7 6 1 C6.99 1 7.98 1 9 1 C8.67 5.62 8.34 10.24 8 15 C7.67 15 7.34 15 7 15 C6.67 12.69 6.34 10.38 6 8 C5.01 9.32 4.02 10.64 3 12 C2.34 11.67 1.68 11.34 1 11 C0.67 13.64 0.34 16.28 0 19 C-0.33 19 -0.66 19 -1 19 C-2.64774582 12.20304851 -2.13729958 6.54547997 0 0 Z " fill="#37567E" transform="translate(259,162)"/>
<path d="M0 0 C0.33 0.66 0.66 1.32 1 2 C0.67 2.66 0.34 3.32 0 4 C1.03125 3.505 2.0625 3.01 3.125 2.5 C6.52451578 1.02526098 9.27021549 0.72708894 13 1 C12.38125 1.433125 11.7625 1.86625 11.125 2.3125 C8.7802755 3.99740483 8.7802755 3.99740483 7 7 C6.67 6.34 6.34 5.68 6 5 C2.51668565 8.01887244 1.20842856 10.56909529 0 15 C0.99 15.33 1.98 15.66 3 16 C2.67 17.32 2.34 18.64 2 20 C-1.20429415 16.79570585 -1.64223652 13.66517585 -2.015625 9.328125 C-1.99264111 5.90352583 -1.16123344 3.21046893 0 0 Z " fill="#405E84" transform="translate(471,169)"/>
<path d="M0 0 C5.10329727 -0.36308044 8.87463833 -0.58277658 13.5 1.8125 C16.24053819 4.21047092 17.90263561 5.76347219 18.1953125 9.48046875 C18.17210937 10.37378906 18.14890625 11.26710937 18.125 12.1875 C18.10695313 13.08855469 18.08890625 13.98960937 18.0703125 14.91796875 C18.04710937 15.60503906 18.02390625 16.29210937 18 17 C16.68 17 15.36 17 14 17 C14.0928125 15.1746875 14.0928125 15.1746875 14.1875 13.3125 C14.20833676 9.38824365 13.28718269 7.24017548 11 4 C11 3.34 11 2.68 11 2 C7.37 1.67 3.74 1.34 0 1 C0 0.67 0 0.34 0 0 Z " fill="#2E4E74" transform="translate(316,213)"/>
<path d="M0 0 C0 5.94 0 11.88 0 18 C-1.65 17.67 -3.3 17.34 -5 17 C-4.67 11.72 -4.34 6.44 -4 1 C-1 0 -1 0 0 0 Z " fill="#033167" transform="translate(387,173)"/>
<path d="M0 0 C0.33 0 0.66 0 1 0 C0.96519531 0.99580078 0.96519531 0.99580078 0.9296875 2.01171875 C0.76375695 8.72861016 0.76375695 8.72861016 3 15 C3.66 15 4.32 15 5 15 C4.67 15.66 4.34 16.32 4 17 C1.4375 17.625 1.4375 17.625 -1 18 C-1 17.01 -1 16.02 -1 15 C-2.65 15 -4.3 15 -6 15 C-6 13.02 -6 11.04 -6 9 C-4.35 9 -2.7 9 -1 9 C-1.020625 7.700625 -1.04125 6.40125 -1.0625 5.0625 C-1.08399454 3.70834367 -1.07148199 2.35243917 -1 1 C-0.67 0.67 -0.34 0.34 0 0 Z " fill="#2C517A" transform="translate(414,155)"/>
<path d="M0 0 C1.2065625 0.0309375 1.2065625 0.0309375 2.4375 0.0625 C2.7675 1.7125 3.0975 3.3625 3.4375 5.0625 C2.4475 5.0625 1.4575 5.0625 0.4375 5.0625 C0.4375 6.7125 0.4375 8.3625 0.4375 10.0625 C-0.5525 10.5575 -0.5525 10.5575 -1.5625 11.0625 C-1.8925 12.0525 -2.2225 13.0425 -2.5625 14.0625 C-3.2225 14.0625 -3.8825 14.0625 -4.5625 14.0625 C-5.76744154 9.12223969 -5.24847922 5.83944113 -3.5625 1.0625 C-2.5625 0.0625 -2.5625 0.0625 0 0 Z " fill="#113A6B" transform="translate(264.5625,157.9375)"/>
<path d="M0 0 C1.98 0.66 3.96 1.32 6 2 C6 2.66 6 3.32 6 4 C4.1128125 4.309375 4.1128125 4.309375 2.1875 4.625 C-1.27748595 5.48818554 -1.80342501 5.71464921 -3.9375 8.8125 C-4.85173018 11.55519054 -5.57979684 14.14261848 -6 17 C-7.32 17 -8.64 17 -10 17 C-10 17.99 -10 18.98 -10 20 C-10.66 20 -11.32 20 -12 20 C-11.34701782 15.97327657 -9.25540628 12.8316419 -7.125 9.4375 C-6.77308594 8.86064453 -6.42117187 8.28378906 -6.05859375 7.68945312 C-4.27807489 4.82010395 -2.53938744 2.24392412 0 0 Z " fill="#4B9AD8" transform="translate(121,223)"/>
<path d="M0 0 C0.66 0.33 1.32 0.66 2 1 C2 1.66 2 2.32 2 3 C1.01 3.33 0.02 3.66 -1 4 C-1.33 7.63 -1.66 11.26 -2 15 C-2.99 14.01 -3.98 13.02 -5 12 C-5.99 12.66 -6.98 13.32 -8 14 C-9.25 6.375 -9.25 6.375 -7 3 C-7 3.66 -7 4.32 -7 5 C-5.68 4.34 -4.36 3.68 -3 3 C-3.66 2.67 -4.32 2.34 -5 2 C-2.625 0.9375 -2.625 0.9375 0 0 Z " fill="#072E60" transform="translate(422,167)"/>
<path d="M0 0 C0.66 0 1.32 0 2 0 C2.33 0.66 2.66 1.32 3 2 C14.55 2.33 26.1 2.66 38 3 C38 3.33 38 3.66 38 4 C37.10692139 4.01981934 36.21384277 4.03963867 35.29370117 4.06005859 C31.97799292 4.13818698 28.66273838 4.22487971 25.34741211 4.31738281 C23.91292932 4.35564866 22.47835135 4.39050581 21.04370117 4.421875 C18.98061122 4.46757862 16.91817505 4.52556193 14.85546875 4.5859375 C13.61434326 4.6173584 12.37321777 4.6487793 11.09448242 4.68115234 C7.83363899 4.77399209 7.83363899 4.77399209 5 7 C4.34 6.67 3.68 6.34 3 6 C3.33 7.32 3.66 8.64 4 10 C3.34 10 2.68 10 2 10 C-0.09350689 6.5980513 -0.17942163 3.94727588 0 0 Z " fill="#005DB6" transform="translate(108,243)"/>
<path d="M0 0 C0 2.64 0 5.28 0 8 C-1.670625 8.2165625 -1.670625 8.2165625 -3.375 8.4375 C-6.82142047 8.78372035 -6.82142047 8.78372035 -9 10 C-9.1875 7.125 -9.1875 7.125 -9 4 C-8.01 3.34 -7.02 2.68 -6 2 C-6 2.99 -6 3.98 -6 5 C-5.34 5 -4.68 5 -4 5 C-4 3.68 -4 2.36 -4 1 C-4.825 1.185625 -5.65 1.37125 -6.5 1.5625 C-10.61926719 2.0774084 -13.90823355 1.63492928 -18 1 C-18 0.67 -18 0.34 -18 0 C-15.3753399 -0.19430855 -12.75053235 -0.38073238 -10.125 -0.5625 C-9.00544922 -0.64661133 -9.00544922 -0.64661133 -7.86328125 -0.73242188 C-2.2265625 -1.11328125 -2.2265625 -1.11328125 0 0 Z " fill="#3E577D" transform="translate(348,164)"/>
<path d="M0 0 C3.07413026 -0.35470734 5.9394987 -0.52149678 9 0 C11.8399407 3.11700808 13 4.76193341 13 9 C12.01 8.67 11.02 8.34 10 8 C9.67 8 9.34 8 9 8 C8.67 8.99 8.34 9.98 8 11 C3.545 10.01 3.545 10.01 -1 9 C-1 8.67 -1 8.34 -1 8 C1.64 8 4.28 8 7 8 C7 7.01 7 6.02 7 5 C4.03 4.505 4.03 4.505 1 4 C1.99 3.34 2.98 2.68 4 2 C2.68 2 1.36 2 0 2 C0 1.34 0 0.68 0 0 Z " fill="#023167" transform="translate(318,216)"/>
<path d="M0 0 C0.33 0 0.66 0 1 0 C1 4.29 1 8.58 1 13 C2.98 13 4.96 13 7 13 C8 14 8 14 8.0625 17.0625 C8.041875 18.031875 8.02125 19.00125 8 20 C6.35 20.33 4.7 20.66 3 21 C3 20.34 3 19.68 3 19 C2.01 18.67 1.02 18.34 0 18 C0 16.68 0 15.36 0 14 C-0.33 13.01 -0.66 12.02 -1 11 C-0.91478259 9.10047654 -0.76270916 7.20336427 -0.5625 5.3125 C-0.46066406 4.31863281 -0.35882813 3.32476562 -0.25390625 2.30078125 C-0.17011719 1.54152344 -0.08632813 0.78226563 0 0 Z " fill="#3E5880" transform="translate(420,171)"/>
<path d="M0 0 C3 3.75 3 3.75 3 6 C3.66 6 4.32 6 5 6 C5 6.66 5 7.32 5 8 C4.34 8 3.68 8 3 8 C3 8.66 3 9.32 3 10 C0.69 10 -1.62 10 -4 10 C-4.33 9.01 -4.66 8.02 -5 7 C-5.66 7 -6.32 7 -7 7 C-7.33 6.01 -7.66 5.02 -8 4 C-4.535 3.505 -4.535 3.505 -1 3 C-0.67 2.01 -0.34 1.02 0 0 Z " fill="#274C76" transform="translate(267,178)"/>
<path d="M0 0 C0.90105469 0.11988281 1.80210937 0.23976562 2.73046875 0.36328125 C3.41753906 0.47027344 4.10460937 0.57726562 4.8125 0.6875 C4.8125 1.0175 4.8125 1.3475 4.8125 1.6875 C4.008125 1.81125 3.20375 1.935 2.375 2.0625 C1.1065625 2.371875 1.1065625 2.371875 -0.1875 2.6875 C-0.5175 3.3475 -0.8475 4.0075 -1.1875 4.6875 C0.1325 5.0175 1.4525 5.3475 2.8125 5.6875 C2.20921875 5.82027344 1.6059375 5.95304688 0.984375 6.08984375 C0.18515625 6.26644531 -0.6140625 6.44304687 -1.4375 6.625 C-2.62085938 6.88603516 -2.62085938 6.88603516 -3.828125 7.15234375 C-5.95628703 7.635056 -8.07282842 8.14913178 -10.1875 8.6875 C-8.33222921 2.26540879 -7.11496551 -1.01642364 0 0 Z " fill="#183D66" transform="translate(481.1875,164.3125)"/>
<path d="M0 0 C0.33 0 0.66 0 1 0 C1.33 6.6 1.66 13.2 2 20 C3.65 20 5.3 20 7 20 C7.33 16.37 7.66 12.74 8 9 C8.33 9 8.66 9 9 9 C9 13.95 9 18.9 9 24 C6.03 24 3.06 24 0 24 C0 16.08 0 8.16 0 0 Z " fill="#5D7595" transform="translate(330,168)"/>
<path d="M0 0 C0.33 0 0.66 0 1 0 C1 2.31 1 4.62 1 7 C2.32 7.33 3.64 7.66 5 8 C4.34 9.32 3.68 10.64 3 12 C-0.375 12.125 -0.375 12.125 -4 12 C-4.66 11.34 -5.32 10.68 -6 10 C-5.67 9.67 -5.34 9.34 -5 9 C-6.65 8.67 -8.3 8.34 -10 8 C-7.23776722 5.23776722 -4.79293383 5.42143709 -1 5 C-0.67 3.35 -0.34 1.7 0 0 Z " fill="#20426D" transform="translate(369,179)"/>
<path d="M0 0 C3.3 0.33 6.6 0.66 10 1 C10 1.99 10 2.98 10 4 C10.99 4.66 11.98 5.32 13 6 C11.06318839 6.08107583 9.1254066 6.13922475 7.1875 6.1875 C6.10855469 6.22230469 5.02960938 6.25710937 3.91796875 6.29296875 C1 6 1 6 -0.88671875 4.48828125 C-1.43779297 3.75158203 -1.43779297 3.75158203 -2 3 C-1.34 2.01 -0.68 1.02 0 0 Z " fill="#062C5C" transform="translate(313,235)"/>
<path d="M0 0 C1.01382963 3.6208201 1.49897691 7.27811418 2 11 C2.33 10.34 2.66 9.68 3 9 C3.99 9 4.98 9 6 9 C6 9.99 6 10.98 6 12 C6.66 12 7.32 12 8 12 C8.33 11.34 8.66 10.68 9 10 C9.99 11.32 10.98 12.64 12 14 C10.865625 14.268125 9.73125 14.53625 8.5625 14.8125 C7.386875 15.204375 6.21125 15.59625 5 16 C4.67 16.99 4.34 17.98 4 19 C0.07719035 13.3055989 -1.24809422 9.94663814 -1 3 C-0.67 2.01 -0.34 1.02 0 0 Z " fill="#556F91" transform="translate(307,221)"/>
<path d="M0 0 C0.66 0 1.32 0 2 0 C2.598125 0.763125 3.19625 1.52625 3.8125 2.3125 C6.0228194 5.02803527 7.93253932 6.38106242 11 8 C11.33 7.01 11.66 6.02 12 5 C12 6.32 12 7.64 12 9 C10.04174127 9.02694851 8.08337774 9.04637218 6.125 9.0625 C5.03445312 9.07410156 3.94390625 9.08570313 2.8203125 9.09765625 C0 9 0 9 -2 8 C-2.20086443 4.28400809 -2.1519437 3.22791555 0 0 Z " fill="#2B96DC" transform="translate(155,191)"/>
<path d="M0 0 C1.45742463 -0.08096803 2.91612807 -0.13917774 4.375 -0.1875 C5.18710938 -0.22230469 5.99921875 -0.25710937 6.8359375 -0.29296875 C7.55007812 -0.19628906 8.26421875 -0.09960938 9 0 C9.66 0.99 10.32 1.98 11 3 C13.05003955 4.19232613 13.05003955 4.19232613 15 5 C14.67 5.99 14.34 6.98 14 8 C13.01 7.34 12.02 6.68 11 6 C9.32577014 6.29299023 7.65821773 6.62690101 6 7 C5.01 6.67 4.02 6.34 3 6 C2.67 6.99 2.34 7.98 2 9 C1 7 1 7 1.9375 3.875 C2.4634375 2.451875 2.4634375 2.451875 3 1 C2.01 0.67 1.02 0.34 0 0 Z " fill="#3BA6E0" transform="translate(182,168)"/>
<path d="M0 0 C6 0 12 0 18 0 C17.67 0.66 17.34 1.32 17 2 C16.01 1.67 15.02 1.34 14 1 C14.66 1.66 15.32 2.32 16 3 C16 3.99 16 4.98 16 6 C10.76824163 6.38281159 7.62197306 5.21854707 3 3 C3 2.34 3 1.68 3 1 C2.01 0.67 1.02 0.34 0 0 Z " fill="#103562" transform="translate(381,164)"/>
<path d="M0 0 C-0.66 3.3 -1.32 6.6 -2 10 C-3.32 10.33 -4.64 10.66 -6 11 C-6.33 9.35 -6.66 7.7 -7 6 C-7.33 6 -7.66 6 -8 6 C-8 4.02 -8 2.04 -8 0 C-4.71303767 -0.79953138 -3.28976808 -1.09658936 0 0 Z " fill="#062E60" transform="translate(357,173)"/>
<path d="M0 0 C3.2910253 1.09700843 3.96023288 1.87619858 6.0625 4.5 C8.17721767 7.18106401 8.17721767 7.18106401 11 9 C10.52354792 13.28806873 9.34097516 15.26647487 6 18 C5.34 18 4.68 18 4 18 C4 16.02 4 14.04 4 12 C4.99 11.67 5.98 11.34 7 11 C7.33 10.34 7.66 9.68 8 9 C7.360625 8.71125 6.72125 8.4225 6.0625 8.125 C4 7 4 7 3 5 C2.01 4.67 1.02 4.34 0 4 C0 2.68 0 1.36 0 0 Z " fill="#63AFDE" transform="translate(189,175)"/>
<path d="M0 0 C1.9375 0.8125 1.9375 0.8125 4 2 C4.33 2.99 4.66 3.98 5 5 C4.34 5 3.68 5 3 5 C3 6.98 3 8.96 3 11 C-0.97977076 11.8441938 -4.97007218 12.44687265 -9 13 C-8.67 12.34 -8.34 11.68 -8 11 C-7.01 11 -6.02 11 -5 11 C-5 10.34 -5 9.68 -5 9 C-4.34 9 -3.68 9 -3 9 C-2.67 7.35 -2.34 5.7 -2 4 C-1.34 4 -0.68 4 0 4 C0 2.68 0 1.36 0 0 Z " fill="#063066" transform="translate(288,177)"/>
<path d="M0 0 C0.33 0 0.66 0 1 0 C2.42258812 3.82320557 3.24042276 6.91281305 3 11 C2.34 11 1.68 11 1 11 C1 11.66 1 12.32 1 13 C0.34 13 -0.32 13 -1 13 C-1.66 14.32 -2.32 15.64 -3 17 C-3.08126087 14.91731407 -3.13930839 12.83371342 -3.1875 10.75 C-3.22230469 9.58984375 -3.25710938 8.4296875 -3.29296875 7.234375 C-2.97975384 3.77648237 -2.40220047 2.44455665 0 0 Z " fill="#2A4C74" transform="translate(301,167)"/>
<path d="M0 0 C0.66 0 1.32 0 2 0 C2.60785141 7.17264669 2.60785141 7.17264669 -0.25 11.0625 C-3 13 -3 13 -5.1875 12.9375 C-7 12 -7 12 -9 10 C-8.67 9.34 -8.34 8.68 -8 8 C-7.34 8 -6.68 8 -6 8 C-4.84188612 6.94729537 -4.84188612 6.94729537 -4 5 C-2.68 5 -1.36 5 0 5 C0 3.35 0 1.7 0 0 Z " fill="#3670B1" transform="translate(246,242)"/>
<path d="M0 0 C0.66 0.33 1.32 0.66 2 1 C1.67 2.32 1.34 3.64 1 5 C3.31 5.33 5.62 5.66 8 6 C5.75 8.0625 5.75 8.0625 3 10 C0.875 9.6875 0.875 9.6875 -1 9 C-1.99 9.33 -2.98 9.66 -4 10 C-4.66 9.67 -5.32 9.34 -6 9 C-4.68775452 5.06326356 -3.08089673 2.77280706 0 0 Z " fill="#38567B" transform="translate(355,164)"/>
<path d="M0 0 C2.25245881 2.68841859 3.88213958 4.64641875 5 8 C4.34 8.66 3.68 9.32 3 10 C3 9.34 3 8.68 3 8 C-3.435 8.495 -3.435 8.495 -10 9 C-10.33 7.68 -10.66 6.36 -11 5 C-8.57332007 3.78666004 -7.57565657 4.07866102 -4.9375 4.5 C-3.638125 4.665 -2.33875 4.83 -1 5 C-0.67 4.67 -0.34 4.34 0 4 C0 2.68 0 1.36 0 0 Z " fill="#072D5C" transform="translate(326,220)"/>
<path d="M0 0 C0.66 0 1.32 0 2 0 C1.07398469 5.19543329 -0.56238004 10.11594868 -2.16015625 15.13671875 C-3.09381917 17.82253962 -3.09381917 17.82253962 -3 20 C-3.99 20 -4.98 20 -6 20 C-6 17.36 -6 14.72 -6 12 C-5.34 12 -4.68 12 -4 12 C-4 10.02 -4 8.04 -4 6 C-3.34 6 -2.68 6 -2 6 C-1.34 4.02 -0.68 2.04 0 0 Z " fill="#3A9CD9" transform="translate(175,184)"/>
<path d="M0 0 C1.27351308 2.54702616 0.80191925 3.4282945 0.0625 6.125 C-0.13214844 6.84945312 -0.32679688 7.57390625 -0.52734375 8.3203125 C-0.76130859 9.15175781 -0.76130859 9.15175781 -1 10 C-0.34 10 0.32 10 1 10 C1.103125 10.639375 1.20625 11.27875 1.3125 11.9375 C1.539375 12.618125 1.76625 13.29875 2 14 C2.99 14.33 3.98 14.66 5 15 C4.34 15.66 3.68 16.32 3 17 C0.03 14.03 -2.94 11.06 -6 8 C-4.21844267 4.43688534 -2.83236991 2.64354525 0 0 Z " fill="#4BA0D9" transform="translate(162,179)"/>
<path d="M0 0 C0.33 0.66 0.66 1.32 1 2 C1.66 2 2.32 2 3 2 C3 3.98 3 5.96 3 8 C5.97 8.495 5.97 8.495 9 9 C9 7.02 9 5.04 9 3 C9.99 3 10.98 3 12 3 C11.01 4.485 11.01 4.485 10 6 C10.66 6 11.32 6 12 6 C12.33 5.34 12.66 4.68 13 4 C12.125 8.75 12.125 8.75 11 11 C8.03 11 5.06 11 2 11 C1.34 7.37 0.68 3.74 0 0 Z " fill="#556988" transform="translate(265,231)"/>
<path d="M0 0 C3 2 3 2 4 5 C4.08143855 6.62719482 4.1075302 8.25751719 4.09765625 9.88671875 C4.09282227 11.2934082 4.09282227 11.2934082 4.08789062 12.72851562 C4.07951172 13.70498047 4.07113281 14.68144531 4.0625 15.6875 C4.05798828 16.67556641 4.05347656 17.66363281 4.04882812 18.68164062 C4.03704303 21.12115474 4.02059011 23.56054689 4 26 C3.34 25.67 2.68 25.34 2 25 C2 19.39 2 13.78 2 8 C1.34 7.67 0.68 7.34 0 7 C0.2784375 6.1028125 0.2784375 6.1028125 0.5625 5.1875 C1.22093687 2.83591238 1.22093687 2.83591238 0 0 Z " fill="#6B7F9D" transform="translate(451,166)"/>
<path d="M0 0 C1.34629425 4.03888274 0.73750569 7.13237916 -1 11 C-3.625 12.5 -3.625 12.5 -6 13 C-6.33 11.35 -6.66 9.7 -7 8 C-7.99 8.495 -7.99 8.495 -9 9 C-9.1875 6.125 -9.1875 6.125 -9 3 C-8.01 2.34 -7.02 1.68 -6 1 C-6 1.66 -6 2.32 -6 3 C-5.34 3 -4.68 3 -4 3 C-3.67 4.98 -3.34 6.96 -3 9 C-2.01 6.03 -1.02 3.06 0 0 Z " fill="#3A5881" transform="translate(275,215)"/>
<path d="M0 0 C1.299375 -0.02126953 1.299375 -0.02126953 2.625 -0.04296875 C5 0.1875 5 0.1875 8 2.1875 C4.37 2.1875 0.74 2.1875 -3 2.1875 C-3 2.8475 -3 3.5075 -3 4.1875 C-3.66 4.1875 -4.32 4.1875 -5 4.1875 C-5 3.5275 -5 2.8675 -5 2.1875 C-6.98 2.8475 -8.96 3.5075 -11 4.1875 C-7.67302146 0.54366636 -4.82795286 0.03592227 0 0 Z M-6 4.1875 C-5.34 4.8475 -4.68 5.5075 -4 6.1875 C-3.01 6.8475 -2.02 7.5075 -1 8.1875 C-1.804375 8.47625 -2.60875 8.765 -3.4375 9.0625 C-6.1326468 9.92012568 -6.1326468 9.92012568 -7 12.1875 C-7.66 10.5375 -8.32 8.8875 -9 7.1875 C-8.34 7.1875 -7.68 7.1875 -7 7.1875 C-6.67 6.1975 -6.34 5.2075 -6 4.1875 Z " fill="#4C698D" transform="translate(313,162.8125)"/>
<path d="M0 0 C1.0354051 3.1848935 0.94040666 5.13031874 0.00390625 8.328125 C-0.22490234 9.12734375 -0.45371094 9.9265625 -0.68945312 10.75 C-0.93630859 11.575 -1.18316406 12.4 -1.4375 13.25 C-1.80198242 14.51070312 -1.80198242 14.51070312 -2.17382812 15.796875 C-2.77373949 17.86715734 -3.38570819 19.93393897 -4 22 C-6.97 22 -9.94 22 -13 22 C-13 21.67 -13 21.34 -13 21 C-10.36 21 -7.72 21 -5 21 C-5 20.34 -5 19.68 -5 19 C-5.99 18.67 -6.98 18.34 -8 18 C-7.34 17.01 -6.68 16.02 -6 15 C-5.67 15.33 -5.34 15.66 -5 16 C-4.731875 15.030625 -4.46375 14.06125 -4.1875 13.0625 C-2.93371745 8.66073104 -1.4735493 4.33223494 0 0 Z " fill="#5C738C" transform="translate(303,220)"/>
<path d="M0 0 C0.66 0 1.32 0 2 0 C2.84454356 3.37817425 3.10844919 5.67465243 2 9 C3.32 9.66 4.64 10.32 6 11 C5.67 11.99 5.34 12.98 5 14 C3.68 13.67 2.36 13.34 1 13 C0.896875 12.360625 0.79375 11.72125 0.6875 11.0625 C0.460625 10.381875 0.23375 9.70125 0 9 C-0.99 8.67 -1.98 8.34 -3 8 C-1.125 2.25 -1.125 2.25 0 0 Z " fill="#062F65" transform="translate(433,177)"/>
<path d="M0 0 C3.16717283 1.58358642 4.73268318 2.45263699 6.3125 5.6875 C6.6528125 6.8321875 6.6528125 6.8321875 7 8 C1.375 11 1.375 11 -2 11 C-4.1875 8.5 -4.1875 8.5 -6 6 C-4.68 6 -3.36 6 -2 6 C-2 6.66 -2 7.32 -2 8 C-0.68 8 0.64 8 2 8 C2.33 6.35 2.66 4.7 3 3 C2.01 2.67 1.02 2.34 0 2 C0 1.34 0 0.68 0 0 Z " fill="#526A8A" transform="translate(288,155)"/>
<path d="M0 0 C0.66 0.33 1.32 0.66 2 1 C2 2.65 2 4.3 2 6 C2.66 5.34 3.32 4.68 4 4 C4 6.64 4 9.28 4 12 C2.35 12.66 0.7 13.32 -1 14 C-0.979375 12.783125 -0.95875 11.56625 -0.9375 10.3125 C-0.93175884 7.08022678 -1.21233685 4.15065259 -2 1 C-1.34 0.67 -0.68 0.34 0 0 Z " fill="#133B6C" transform="translate(265,217)"/>
<path d="M0 0 C0.66 0.33 1.32 0.66 2 1 C2 1.66 2 2.32 2 3 C4.97 3.33 7.94 3.66 11 4 C7 6 7 6 4 7 C4 8.32 4 9.64 4 11 C1 12 1 12 -2.1875 10.5625 C-3.115625 10.046875 -4.04375 9.53125 -5 9 C-5 8.67 -5 8.34 -5 8 C-3.02 8 -1.04 8 1 8 C1 7.34 1 6.68 1 6 C1.66 6 2.32 6 3 6 C3 5.34 3 4.68 3 4 C2.34 4 1.68 4 1 4 C0.67 2.68 0.34 1.36 0 0 Z " fill="#4C698E" transform="translate(269,180)"/>
<path d="M0 0 C0.66 0.33 1.32 0.66 2 1 C2.27264574 11.5309417 2.27264574 11.5309417 -0.84765625 15.1328125 C-2.84296911 16.5897076 -4.80875367 17.86194951 -7 19 C-7.66 18.67 -8.32 18.34 -9 18 C-8.11634766 17.27296875 -8.11634766 17.27296875 -7.21484375 16.53125 C-2.74500645 12.83510596 -2.74500645 12.83510596 -0.69140625 7.6875 C-0.98359504 5.25329896 -0.98359504 5.25329896 -2 2 C-1.34 2 -0.68 2 0 2 C0 1.34 0 0.68 0 0 Z " fill="#42A3DA" transform="translate(204,178)"/>
<path d="M0 0 C1.65 0.33 3.3 0.66 5 1 C5 2.32 5 3.64 5 5 C3.56496445 5.36402369 2.12683494 5.71586591 0.6875 6.0625 C-0.11300781 6.25972656 -0.91351563 6.45695313 -1.73828125 6.66015625 C-4 7 -4 7 -7 6 C-6.34 6 -5.68 6 -5 6 C-5 4.68 -5 3.36 -5 2 C-3.35 2 -1.7 2 0 2 C0 1.34 0 0.68 0 0 Z " fill="#163D70" transform="translate(313,185)"/>
<path d="M0 0 C1.97805311 1.63880917 2.91505716 2.51226372 3.36328125 5.0859375 C3.18309201 13.20831387 3.18309201 13.20831387 1 17 C0.01 17.66 -0.98 18.32 -2 19 C-2 15 -2 15 0 13 C0.24360073 9.87185486 0.24360073 9.87185486 0.125 6.375 C0.10695313 5.18648437 0.08890625 3.99796875 0.0703125 2.7734375 C0.04710937 1.85820312 0.02390625 0.94296875 0 0 Z " fill="#263F66" transform="translate(363,220)"/>
<path d="M0 0 C0 2.31 0 4.62 0 7 C-0.99 7.33 -1.98 7.66 -3 8 C-3.33 8.99 -3.66 9.98 -4 11 C-4.66 10.67 -5.32 10.34 -6 10 C-5.67 7.03 -5.34 4.06 -5 1 C-1 0 -1 0 0 0 Z " fill="#082D61" transform="translate(420,155)"/>
<path d="M0 0 C2.64 0 5.28 0 8 0 C8.33 3.3 8.66 6.6 9 10 C6 8 6 8 5 5 C3.37347684 3.29413425 1.70993434 1.6222454 0 0 Z " fill="#2A4972" transform="translate(259,204)"/>
<path d="M0 0 C0.33 1.32 0.66 2.64 1 4 C-1.64 4.66 -4.28 5.32 -7 6 C-7 5.01 -7 4.02 -7 3 C-7.99 3.33 -8.98 3.66 -10 4 C-10 3.34 -10 2.68 -10 2 C-6.5980513 -0.09350689 -3.94727588 -0.17942163 0 0 Z " fill="#052E5F" transform="translate(354,214)"/>
<path d="M0 0 C0.66 0.33 1.32 0.66 2 1 C2 2.65 2 4.3 2 6 C2.66 5.67 3.32 5.34 4 5 C4.33 5.99 4.66 6.98 5 8 C2.75 9.125 2.75 9.125 0 10 C-2.25 9.25 -2.25 9.25 -4 8 C-4.33 7.34 -4.66 6.68 -5 6 C-3.35 5.34 -1.7 4.68 0 4 C0 2.68 0 1.36 0 0 Z " fill="#052E61" transform="translate(447,180)"/>
<path d="M0 0 C1.65 0.33 3.3 0.66 5 1 C2.525 4.465 2.525 4.465 0 8 C0.99 8.99 1.98 9.98 3 11 C3 11.66 3 12.32 3 13 C1.68 12.34 0.36 11.68 -1 11 C-1 10.34 -1 9.68 -1 9 C-1.66 9 -2.32 9 -3 9 C-3.33 7.35 -3.66 5.7 -4 4 C-2.35 4 -0.7 4 1 4 C0.67 2.68 0.34 1.36 0 0 Z " fill="#45A5DB" transform="translate(152,178)"/>
<path d="M0 0 C4.51617599 -0.07654536 8.59085217 -0.10228696 13 1 C13 1.33 13 1.66 13 2 C10.03 2 7.06 2 4 2 C4 2.66 4 3.32 4 4 C5.65 3.67 7.3 3.34 9 3 C9.33 3.66 9.66 4.32 10 5 C7.36 5.33 4.72 5.66 2 6 C1.67 5.34 1.34 4.68 1 4 C1.33 3.34 1.66 2.68 2 2 C1.34 2 0.68 2 0 2 C0 1.34 0 0.68 0 0 Z " fill="#0B2F5C" transform="translate(314,214)"/>
<path d="M0 0 C0.66 0 1.32 0 2 0 C2 0.99 2 1.98 2 3 C2.99 3.33 3.98 3.66 5 4 C5.02708567 5.60407328 5.04643483 7.2082785 5.0625 8.8125 C5.07410156 9.70582031 5.08570313 10.59914062 5.09765625 11.51953125 C5 14 5 14 4 17 C3.34 17 2.68 17 2 17 C2.04640625 16.33613281 2.0928125 15.67226562 2.140625 14.98828125 C2.42511557 9.11883743 2.42511557 9.11883743 0 3.875 C-0.66 3.25625 -1.32 2.6375 -2 2 C-1.34 2 -0.68 2 0 2 C0 1.34 0 0.68 0 0 Z " fill="#3B577F" transform="translate(316,168)"/>
<path d="M0 0 C2.12401038 4.24802077 2.2376107 7.16761063 2.125 11.75 C2.11597656 12.44738281 2.10695313 13.14476562 2.09765625 13.86328125 C2.07419888 15.57566958 2.03833104 17.28788004 2 19 C0.35 18.67 -1.3 18.34 -3 18 C-3 17.34 -3 16.68 -3 16 C-2.01 16 -1.02 16 0 16 C0 10.72 0 5.44 0 0 Z " fill="#072853" transform="translate(405,172)"/>
<path d="M0 0 C2.875 -0.1875 2.875 -0.1875 6 0 C8 3 8 3 7.8125 5.0625 C7 7 7 7 4 9 C3.34 8.34 2.68 7.68 2 7 C2.99 5.35 3.98 3.7 5 2 C3.35 2.66 1.7 3.32 0 4 C0 2.68 0 1.36 0 0 Z " fill="#43A8DB" transform="translate(161,171)"/>
<path d="M0 0 C0.598125 0.226875 1.19625 0.45375 1.8125 0.6875 C0.8225 0.6875 -0.1675 0.6875 -1.1875 0.6875 C-1.1875 1.6775 -1.1875 2.6675 -1.1875 3.6875 C-1.8475 3.6875 -2.5075 3.6875 -3.1875 3.6875 C-3.1875 4.6775 -3.1875 5.6675 -3.1875 6.6875 C-1.5375 6.6875 0.1125 6.6875 1.8125 6.6875 C1.8125 7.3475 1.8125 8.0075 1.8125 8.6875 C-0.8275 8.6875 -3.4675 8.6875 -6.1875 8.6875 C-5.58623418 3.27610759 -5.58623418 3.27610759 -3.875 0.75 C-2.1875 -0.3125 -2.1875 -0.3125 0 0 Z " fill="#596F8C" transform="translate(436.1875,164.3125)"/>
<path d="M0 0 C10.33480176 -0.40528634 10.33480176 -0.40528634 14 2 C14.33 3.65 14.66 5.3 15 7 C10.05 5.02 10.05 5.02 5 3 C5 2.67 5 2.34 5 2 C3.35 1.67 1.7 1.34 0 1 C0 0.67 0 0.34 0 0 Z " fill="#365375" transform="translate(359,163)"/>
<path d="M0 0 C2 2 2 2 2.125 4.625 C2.08375 5.40875 2.0425 6.1925 2 7 C1.01 7 0.02 7 -1 7 C-1 8.32 -1 9.64 -1 11 C-1.66 11 -2.32 11 -3 11 C-4.22080679 5.62845011 -4.22080679 5.62845011 -3.1875 2.6875 C-2 1 -2 1 0 0 Z " fill="#082D5B" transform="translate(291,222)"/>
<path d="M0 0 C1.9078584 3.1749094 2.1609041 5.10585211 1.625 8.75 C1.51414062 9.54921875 1.40328125 10.3484375 1.2890625 11.171875 C1.19367188 11.77515625 1.09828125 12.3784375 1 13 C0.01 13 -0.98 13 -2 13 C-2.33 14.65 -2.66 16.3 -3 18 C-4.32435978 14.02692066 -3.18129186 11.19025432 -2.0625 7.3125 C-1.76956055 6.2596582 -1.76956055 6.2596582 -1.47070312 5.18554688 C-0.98800864 3.45491056 -0.49499154 1.72715934 0 0 Z " fill="#4D678A" transform="translate(299,205)"/>
<path d="M0 0 C0.80179687 0.00451172 1.60359375 0.00902344 2.4296875 0.01367188 C4.41149006 0.02546832 6.39325433 0.04340395 8.375 0.0625 C8.705 0.7225 9.035 1.3825 9.375 2.0625 C3.765 1.7325 -1.845 1.4025 -7.625 1.0625 C-7.955 2.0525 -8.285 3.0425 -8.625 4.0625 C-10.605 4.3925 -12.585 4.7225 -14.625 5.0625 C-9.76129148 0.03666786 -6.8489112 -0.07226936 0 0 Z " fill="#516784" transform="translate(277.625,152.9375)"/>
<path d="M0 0 C0.66 0 1.32 0 2 0 C2.33 1.32 2.66 2.64 3 4 C4.65 4.33 6.3 4.66 8 5 C7.01 5.66 6.02 6.32 5 7 C4.34 6.67 3.68 6.34 3 6 C3.33 7.32 3.66 8.64 4 10 C3.34 10 2.68 10 2 10 C-0.09350689 6.5980513 -0.17942163 3.94727588 0 0 Z " fill="#2E6CAF" transform="translate(108,243)"/>
<path d="M0 0 C2.31 0 4.62 0 7 0 C5.02 0.99 5.02 0.99 3 2 C2.67 9.26 2.34 16.52 2 24 C1.67 24 1.34 24 1 24 C0.67 16.08 0.34 8.16 0 0 Z " fill="#133155" transform="translate(330,165)"/>
<path d="M0 0 C-1.14453125 1.51953125 -1.14453125 1.51953125 -3 3 C-5.69921875 3.07421875 -5.69921875 3.07421875 -8.6875 2.6875 C-10.17830078 2.50767578 -10.17830078 2.50767578 -11.69921875 2.32421875 C-12.45847656 2.21722656 -13.21773438 2.11023438 -14 2 C-13.67 1.34 -13.34 0.68 -13 0 C-8.42537741 -1.19811544 -4.61967708 -0.83154187 0 0 Z " fill="#033167" transform="translate(293,173)"/>
<path d="M0 0 C0.99 0.33 1.98 0.66 3 1 C3.80078125 2.70703125 3.80078125 2.70703125 4.3125 4.8125 C4.58513672 5.84310547 4.58513672 5.84310547 4.86328125 6.89453125 C5 9 5 9 3 13 C2.01 10.03 1.02 7.06 0 4 C-0.66 4.66 -1.32 5.32 -2 6 C-2 4.35 -2 2.7 -2 1 C-1.34 0.67 -0.68 0.34 0 0 Z " fill="#62789A" transform="translate(283,218)"/>
<path d="M0 0 C0.99 0 1.98 0 3 0 C3.39143394 1.74639757 3.76254287 3.49735918 4.125 5.25 C4.33382813 6.22453125 4.54265625 7.1990625 4.7578125 8.203125 C5.0202996 11.23442766 4.61988849 12.48017346 3 15 C2.49564306 13.0636296 1.99666126 11.12585854 1.5 9.1875 C1.2215625 8.10855469 0.943125 7.02960938 0.65625 5.91796875 C0 3 0 3 0 0 Z " fill="#516A8B" transform="translate(260,213)"/>
<path d="M0 0 C1.134375 0.020625 2.26875 0.04125 3.4375 0.0625 C2.9425 0.495625 2.4475 0.92875 1.9375 1.375 C0.10531808 3.05990483 0.10531808 3.05990483 0.4375 6.0625 C-1.2125 6.3925 -2.8625 6.7225 -4.5625 7.0625 C-4.60504356 5.06295254 -4.60330783 3.06208364 -4.5625 1.0625 C-3.5625 0.0625 -3.5625 0.0625 0 0 Z " fill="#052C59" transform="translate(304.5625,203.9375)"/>
<path d="M0 0 C0 0.99 0 1.98 0 3 C-4.49656104 5.24828052 -8.07872966 5.16682272 -13 5 C-13 4.34 -13 3.68 -13 3 C-12.37351562 2.86722656 -11.74703125 2.73445312 -11.1015625 2.59765625 C-10.28429687 2.42105469 -9.46703125 2.24445313 -8.625 2.0625 C-7.81289063 1.88847656 -7.00078125 1.71445313 -6.1640625 1.53515625 C-3.88723554 0.9721142 -2.3530537 0 0 0 Z " fill="#697F9A" transform="translate(322,188)"/>
<path d="M0 0 C2.625 0.375 2.625 0.375 5 1 C5 2.65 5 4.3 5 6 C4.01 6 3.02 6 2 6 C2 5.34 2 4.68 2 4 C0.68 4.33 -0.64 4.66 -2 5 C-2 2 -2 2 0 0 Z " fill="#042E5F" transform="translate(443,164)"/>
<path d="M0 0 C0 2.64 0 5.28 0 8 C1.32 8.33 2.64 8.66 4 9 C2.25 9.6875 2.25 9.6875 0 10 C-2.25 8.5625 -2.25 8.5625 -4 7 C-3.67 6.34 -3.34 5.68 -3 5 C-3.66 4.34 -4.32 3.68 -5 3 C-1.125 0 -1.125 0 0 0 Z " fill="#31557D" transform="translate(357,231)"/>
<path d="M0 0 C9.67550265 -0.68837568 9.67550265 -0.68837568 13.625 1.875 C14.40875 2.57625 15.1925 3.2775 16 4 C16 4.66 16 5.32 16 6 C14.0625 5.6875 14.0625 5.6875 12 5 C11.67 4.01 11.34 3.02 11 2 C7.37 1.67 3.74 1.34 0 1 C0 0.67 0 0.34 0 0 Z " fill="#5A6E8B" transform="translate(316,213)"/>
<path d="M0 0 C2.97093503 4.45640255 2.51397346 8.7708787 2 14 C0.5 17.6875 0.5 17.6875 -1 20 C-1.625 18.25 -1.625 18.25 -2 16 C-1.6803125 15.4225 -1.360625 14.845 -1.03125 14.25 C0.31894581 11.30411823 0.19510359 8.97476495 0.125 5.75 C0.10695313 4.67234375 0.08890625 3.5946875 0.0703125 2.484375 C0.04710937 1.66453125 0.02390625 0.8446875 0 0 Z " fill="#576E8B" transform="translate(376,169)"/>
<path d="M0 0 C1.65 0 3.3 0 5 0 C5 0.99 5 1.98 5 3 C6.65 3.33 8.3 3.66 10 4 C10 4.33 10 4.66 10 5 C8.741875 5.04125 7.48375 5.0825 6.1875 5.125 C5.47980469 5.14820313 4.77210938 5.17140625 4.04296875 5.1953125 C2 5 2 5 -1 3 C-0.67 2.01 -0.34 1.02 0 0 Z " fill="#3A5982" transform="translate(347,237)"/>
<path d="M0 0 C2.97 0 5.94 0 9 0 C8.34 2.97 7.68 5.94 7 9 C6.34 8.34 5.68 7.68 5 7 C5 6.01 5 5.02 5 4 C4.34 3.67 3.68 3.34 3 3 C3.99 2.67 4.98 2.34 6 2 C4.02 2 2.04 2 0 2 C0 1.34 0 0.68 0 0 Z " fill="#495F7D" transform="translate(300,203)"/>
<path d="M0 0 C9.41002278 -0.3690205 9.41002278 -0.3690205 14 2 C13.34 2.66 12.68 3.32 12 4 C12 3.34 12 2.68 12 2 C11.13375 2.185625 10.2675 2.37125 9.375 2.5625 C5.94847372 3.00667933 3.35787629 2.71954492 0 2 C0 1.34 0 0.68 0 0 Z " fill="#4C617E" transform="translate(480,163)"/>
<path d="M0 0 C4.83256305 0.41421969 6.82679218 2.46413986 10 6 C9.67 6.66 9.34 7.32 9 8 C6.5 6.625 6.5 6.625 4 5 C4 4.34 4 3.68 4 3 C3.01 3 2.02 3 1 3 C0.67 2.01 0.34 1.02 0 0 Z " fill="#435D7B" transform="translate(355,213)"/>
<path d="M0 0 C1.32 0 2.64 0 4 0 C4.33 1.65 4.66 3.3 5 5 C3.1875 5.6875 3.1875 5.6875 1 6 C-0.75 4.5625 -0.75 4.5625 -2 3 C-1.34 2.01 -0.68 1.02 0 0 Z " fill="#123565" transform="translate(313,235)"/>
<path d="M0 0 C2.31 0 4.62 0 7 0 C7.33 2.31 7.66 4.62 8 7 C4.58900832 7 1.36911686 6.50854594 -2 6 C-2 5.67 -2 5.34 -2 5 C0.64 5 3.28 5 6 5 C6 4.01 6 3.02 6 2 C3.03 1.505 3.03 1.505 0 1 C0 0.67 0 0.34 0 0 Z " fill="#4F6991" transform="translate(319,219)"/>
<path d="M0 0 C2.625 0.9375 2.625 0.9375 5 2 C4.67 2.99 4.34 3.98 4 5 C3.34 4.34 2.68 3.68 2 3 C0.64560332 5.70879335 0.93498549 8.00933268 1 11 C0.67 11 0.34 11 0 11 C-0.66 7.7 -1.32 4.4 -2 1 C-1.34 0.67 -0.68 0.34 0 0 Z " fill="#082E5E" transform="translate(358,218)"/>
<path d="M0 0 C1.98 0.66 3.96 1.32 6 2 C6 2.66 6 3.32 6 4 C3.36 4.33 0.72 4.66 -2 5 C-1.34 3.35 -0.68 1.7 0 0 Z " fill="#3294DB" transform="translate(121,223)"/>
<path d="M0 0 C0 0.99 0 1.98 0 3 C0.66 3.66 1.32 4.32 2 5 C1.01 6.32 0.02 7.64 -1 9 C-1.73080266 7.02253397 -2.39421747 5.01927511 -3 3 C-2.67 2.34 -2.34 1.68 -2 1 C-3.32 1.33 -4.64 1.66 -6 2 C-6 1.34 -6 0.68 -6 0 C-3.50907189 -1.24546405 -2.58919267 -0.7767578 0 0 Z " fill="#39567F" transform="translate(316,216)"/>
<path d="M0 0 C2.97 0.495 2.97 0.495 6 1 C6 1.66 6 2.32 6 3 C7.32 3.33 8.64 3.66 10 4 C7.69 4.33 5.38 4.66 3 5 C2.01 3.35 1.02 1.7 0 0 Z " fill="#043267" transform="translate(476,185)"/>
<path d="M0 0 C1.5625 1.125 1.5625 1.125 3 3 C2.6875 6.1875 2.6875 6.1875 2 9 C0.68 9.33 -0.64 9.66 -2 10 C-2.33 8.68 -2.66 7.36 -3 6 C-2.01 5.67 -1.02 5.34 0 5 C0 3.35 0 1.7 0 0 Z " fill="#042D5A" transform="translate(450,166)"/>
<path d="M0 0 C2.64 0 5.28 0 8 0 C7.67 0.99 7.34 1.98 7 3 C7.99 3.99 8.98 4.98 10 6 C8.35 5.67 6.7 5.34 5 5 C5 4.01 5 3.02 5 2 C3.35 2 1.7 2 0 2 C0 1.34 0 0.68 0 0 Z " fill="#072C57" transform="translate(347,235)"/>
<path d="M0 0 C2.475 0.495 2.475 0.495 5 1 C4.6875 3.375 4.6875 3.375 4 6 C3.01 6.66 2.02 7.32 1 8 C0.67 5.36 0.34 2.72 0 0 Z " fill="#5F7490" transform="translate(329,232)"/>
<path d="M0 0 C0.99 0.66 1.98 1.32 3 2 C3 2.66 3 3.32 3 4 C3.66 4.33 4.32 4.66 5 5 C3.35 4.67 1.7 4.34 0 4 C0 4.66 0 5.32 0 6 C-1.98 6 -3.96 6 -6 6 C-2.25 3 -2.25 3 0 3 C0 2.01 0 1.02 0 0 Z " fill="#0A2D59" transform="translate(344,235)"/>
<path d="M0 0 C0.99 0 1.98 0 3 0 C2.67 4.62 2.34 9.24 2 14 C1.67 14 1.34 14 1 14 C0.67 9.38 0.34 4.76 0 0 Z " fill="#5A7399" transform="translate(265,163)"/>
<path d="M0 0 C0.99 0 1.98 0 3 0 C3 1.98 3 3.96 3 6 C1.68 5.67 0.36 5.34 -1 5 C-0.67 3.35 -0.34 1.7 0 0 Z " fill="#033167" transform="translate(271,234)"/>
<path d="M0 0 C0.66 0.33 1.32 0.66 2 1 C1.835 1.598125 1.67 2.19625 1.5 2.8125 C0.8885876 5.11344336 0.8885876 5.11344336 1 8 C-0.32 8 -1.64 8 -3 8 C-2.25 2.25 -2.25 2.25 0 0 Z " fill="#043065" transform="translate(360,231)"/>
<path d="M0 0 C-1.45124634 3.82601307 -3.35774704 5.22329124 -7 7 C-7.99 7 -8.98 7 -10 7 C-8.90536178 5.82438854 -7.79892814 4.6597511 -6.6875 3.5 C-6.07261719 2.8503125 -5.45773438 2.200625 -4.82421875 1.53125 C-3 0 -3 0 0 0 Z " fill="#3290D3" transform="translate(205,189)"/>
<path d="M0 0 C0.66 0.33 1.32 0.66 2 1 C2 1.66 2 2.32 2 3 C2.66 3 3.32 3 4 3 C4 3.66 4 4.32 4 5 C3.34 5 2.68 5 2 5 C2 5.66 2 6.32 2 7 C0.02 7 -1.96 7 -4 7 C-3.67 6.34 -3.34 5.68 -3 5 C-2.01 5 -1.02 5 0 5 C0 3.35 0 1.7 0 0 Z " fill="#062F60" transform="translate(268,181)"/>
<path d="M0 0 C2.31 0.33 4.62 0.66 7 1 C7 2.32 7 3.64 7 5 C6.01 4.34 5.02 3.68 4 3 C1.35367713 3.3121764 1.35367713 3.3121764 -1 4 C-0.67 2.68 -0.34 1.36 0 0 Z " fill="#45A4D7" transform="translate(189,171)"/>
<path d="M0 0 C0.99 0 1.98 0 3 0 C3 1.98 3 3.96 3 6 C0.525 5.01 0.525 5.01 -2 4 C-1.34 2.68 -0.68 1.36 0 0 Z " fill="#073367" transform="translate(327,234)"/>
<path d="M0 0 C0.99 0.33 1.98 0.66 3 1 C3 1.66 3 2.32 3 3 C3.99 3 4.98 3 6 3 C6 3.66 6 4.32 6 5 C4.02 5 2.04 5 0 5 C-0.5625 3.0625 -0.5625 3.0625 -1 1 C-0.67 0.67 -0.34 0.34 0 0 Z " fill="#324E74" transform="translate(417,187)"/>
<path d="M0 0 C0.66 1.32 1.32 2.64 2 4 C0.37660195 5.70884005 -1.29319053 7.37446717 -3 9 C-3.66 9 -4.32 9 -5 9 C-5.33 8.01 -5.66 7.02 -6 6 C-4.35 6 -2.7 6 -1 6 C-0.67 4.02 -0.34 2.04 0 0 Z " fill="#496282" transform="translate(496,182)"/>
<path d="M0 0 C2.97 0.99 5.94 1.98 9 3 C9 3.66 9 4.32 9 5 C7.02 5 5.04 5 3 5 C2.67 5.66 2.34 6.32 2 7 C1.34 4.69 0.68 2.38 0 0 Z " fill="#153F71" transform="translate(474,181)"/>
<path d="M0 0 C1.32 0.33 2.64 0.66 4 1 C4 3.31 4 5.62 4 8 C3.01 8.33 2.02 8.66 1 9 C0.67 6.03 0.34 3.06 0 0 Z " fill="#153D6E" transform="translate(447,164)"/>
<path d="M0 0 C0.99 0.66 1.98 1.32 3 2 C3.1875 4.625 3.1875 4.625 3 7 C0.03 7 -2.94 7 -6 7 C-6 6.67 -6 6.34 -6 6 C-3.36 6 -0.72 6 2 6 C2 5.34 2 4.68 2 4 C1.01 3.67 0.02 3.34 -1 3 C-0.67 2.01 -0.34 1.02 0 0 Z " fill="#526D92" transform="translate(296,235)"/>
<path d="M0 0 C0.66 0.33 1.32 0.66 2 1 C1.40844669 2.31823302 0.80128537 3.62947051 0.1875 4.9375 C-0.31716797 6.03384766 -0.31716797 6.03384766 -0.83203125 7.15234375 C-2 9 -2 9 -5 10 C-3.66511872 6.40608886 -2.03977277 3.24509304 0 0 Z " fill="#5EA4D5" transform="translate(118,226)"/>
<path d="M0 0 C-1 3 -1 3 -2.8125 4.25 C-5.33943414 5.11637742 -6.52221994 4.88492145 -9 4 C-6.43425105 1.43425105 -3.68548192 0 0 0 Z " fill="#425D7F" transform="translate(290,187)"/>
<path d="M0 0 C1.98 0.66 3.96 1.32 6 2 C5.34 3.32 4.68 4.64 4 6 C2.68 5.67 1.36 5.34 0 5 C0 3.35 0 1.7 0 0 Z " fill="#05316B" transform="translate(383,166)"/>
<path d="M0 0 C1.32 0 2.64 0 4 0 C4.33 1.32 4.66 2.64 5 4 C2 5 2 5 -0.1875 4.0625 C-0.785625 3.711875 -1.38375 3.36125 -2 3 C-1.34 2.67 -0.68 2.34 0 2 C0 1.34 0 0.68 0 0 Z " fill="#022F67" transform="translate(357,166)"/>
<path d="M0 0 C-0.33 2.64 -0.66 5.28 -1 8 C-1.33 8 -1.66 8 -2 8 C-2.433125 6.576875 -2.433125 6.576875 -2.875 5.125 C-3.76825109 1.94788422 -3.76825109 1.94788422 -6 0 C-3.50907189 -1.24546405 -2.58919267 -0.7767578 0 0 Z " fill="#2F557F" transform="translate(280,227)"/>
<path d="M0 0 C0.66 0.33 1.32 0.66 2 1 C2.6875 3.5 2.6875 3.5 3 6 C2 7 2 7 -1.0625 7.0625 C-2.5165625 7.0315625 -2.5165625 7.0315625 -4 7 C-2.68 6.67 -1.36 6.34 0 6 C-0.2784375 4.7934375 -0.2784375 4.7934375 -0.5625 3.5625 C-0.706875 2.716875 -0.85125 1.87125 -1 1 C-0.67 0.67 -0.34 0.34 0 0 Z " fill="#0F84D5" transform="translate(167,194)"/>
<path d="M0 0 C0.66 0 1.32 0 2 0 C2 0.66 2 1.32 2 2 C4.475 2.99 4.475 2.99 7 4 C7 4.66 7 5.32 7 6 C1.25 4.375 1.25 4.375 -1 1 C-0.67 0.67 -0.34 0.34 0 0 Z " fill="#456082" transform="translate(352,186)"/>
<path d="M0 0 C0.66 1.32 1.32 2.64 2 4 C1.01 5.485 1.01 5.485 0 7 C-0.66 7 -1.32 7 -2 7 C-2 5.02 -2 3.04 -2 1 C-1.34 0.67 -0.68 0.34 0 0 Z " fill="#3E9CDA" transform="translate(195,186)"/>
<path d="M0 0 C2.31 0 4.62 0 7 0 C7.33 1.65 7.66 3.3 8 5 C6.68 4.67 5.36 4.34 4 4 C4 3.34 4 2.68 4 2 C3.01 2.33 2.02 2.66 1 3 C0.67 2.01 0.34 1.02 0 0 Z " fill="#042C58" transform="translate(337,165)"/>
<path d="M0 0 C0.66 0.33 1.32 0.66 2 1 C1.30058404 4.14737182 0.23921302 7.02588876 -1 10 C-1.33 10 -1.66 10 -2 10 C-2.25 3.375 -2.25 3.375 0 0 Z " fill="#627997" transform="translate(431,177)"/>
<path d="M0 0 C0 0.66 0 1.32 0 2 C-3.375 2.625 -3.375 2.625 -7 3 C-7.66 2.34 -8.32 1.68 -9 1 C-5.92677456 0.08941469 -3.19902639 -0.08886184 0 0 Z " fill="#072E5C" transform="translate(446,175)"/>
<path d="M0 0 C2.64 0.66 5.28 1.32 8 2 C8 2.33 8 2.66 8 3 C7.05125 3.309375 6.1025 3.61875 5.125 3.9375 C2.13919592 4.87394742 2.13919592 4.87394742 0 6 C-1.125 2.25 -1.125 2.25 0 0 Z " fill="#4E6B90" transform="translate(389,168)"/>
<path d="M0 0 C0.66 0.33 1.32 0.66 2 1 C1.01 2.485 1.01 2.485 0 4 C0.66 4 1.32 4 2 4 C2.33 3.34 2.66 2.68 3 2 C2.67 3.65 2.34 5.3 2 7 C1.01 7 0.02 7 -1 7 C-1.04254356 5.00045254 -1.04080783 2.99958364 -1 1 C-0.67 0.67 -0.34 0.34 0 0 Z " fill="#35537F" transform="translate(275,233)"/>
<path d="M0 0 C0.33 0.66 0.66 1.32 1 2 C1.66 2 2.32 2 3 2 C3.33 2.99 3.66 3.98 4 5 C3.01 6.485 3.01 6.485 2 8 C1.67 6.68 1.34 5.36 1 4 C0.34 4 -0.32 4 -1 4 C-0.67 2.68 -0.34 1.36 0 0 Z " fill="#254877" transform="translate(309,218)"/>
<path d="M0 0 C2.31 0 4.62 0 7 0 C6.67 1.65 6.34 3.3 6 5 C2.83884224 3.63016497 2.0072908 3.0109362 0 0 Z " fill="#072B5A" transform="translate(259,204)"/>
<path d="M0 0 C1.98 0.66 3.96 1.32 6 2 C6 2.66 6 3.32 6 4 C5.34 4 4.68 4 4 4 C3.67 4.66 3.34 5.32 3 6 C2.566875 5.0409375 2.566875 5.0409375 2.125 4.0625 C1.17176549 1.84793921 1.17176549 1.84793921 -1 1 C-0.67 0.67 -0.34 0.34 0 0 Z " fill="#1388D5" transform="translate(185,192)"/>
<path d="M0 0 C0.66 0 1.32 0 2 0 C1.47731534 2.76276177 0.89130413 5.3260876 0 8 C-0.66 8 -1.32 8 -2 8 C-1.125 2.25 -1.125 2.25 0 0 Z " fill="#65ADDC" transform="translate(175,184)"/>
<path d="M0 0 C2.475 0.495 2.475 0.495 5 1 C5 2.32 5 3.64 5 5 C3.35 4.67 1.7 4.34 0 4 C0 2.68 0 1.36 0 0 Z " fill="#0C376B" transform="translate(313,185)"/>
<path d="M0 0 C0.99 0 1.98 0 3 0 C3.66 1.32 4.32 2.64 5 4 C4.34 4.66 3.68 5.32 3 6 C1.5 4.6875 1.5 4.6875 0 3 C0 2.01 0 1.02 0 0 Z " fill="#0195E9" transform="translate(166,185)"/>
<path d="M0 0 C1.88343932 3.76687864 2.22057835 5.02958963 2 9 C1.01 9 0.02 9 -1 9 C-0.67 6.03 -0.34 3.06 0 0 Z " fill="#2F4F74" transform="translate(350,176)"/>
<path d="M0 0 C2.475 0.99 2.475 0.99 5 2 C4.01 2.495 4.01 2.495 3 3 C3 5.97 3 8.94 3 12 C2.67 12 2.34 12 2 12 C1.93941406 11.38511719 1.87882812 10.77023438 1.81640625 10.13671875 C1.73261719 9.32847656 1.64882813 8.52023438 1.5625 7.6875 C1.48128906 6.88699219 1.40007812 6.08648437 1.31640625 5.26171875 C1.04734307 2.83912821 1.04734307 2.83912821 0 0 Z " fill="#6C82A0" transform="translate(488,170)"/>
<path d="M0 0 C1.32 0.33 2.64 0.66 4 1 C3.67 1.99 3.34 2.98 3 4 C1.35 4.33 -0.3 4.66 -2 5 C-1.34 3.35 -0.68 1.7 0 0 Z " fill="#0B305F" transform="translate(410,165)"/>
<path d="M0 0 C0.66 0 1.32 0 2 0 C1.6875 1.875 1.6875 1.875 1 4 C0.01 4.66 -0.98 5.32 -2 6 C-2 2 -2 2 0 0 Z " fill="#475F7C" transform="translate(363,233)"/>
<path d="M0 0 C0.66 0.33 1.32 0.66 2 1 C1.67 2.98 1.34 4.96 1 7 C0.34 6.67 -0.32 6.34 -1 6 C-1.625 3.4375 -1.625 3.4375 -2 1 C-1.34 0.67 -0.68 0.34 0 0 Z " fill="#033366" transform="translate(265,217)"/>
<path d="M0 0 C0.99 0 1.98 0 3 0 C4.32 2.31 5.64 4.62 7 7 C4.13302508 5.71480435 2.02392288 4.42870746 0 2 C0 1.34 0 0.68 0 0 Z " fill="#536887" transform="translate(299,184)"/>
<path d="M0 0 C0.33 0.66 0.66 1.32 1 2 C0.67 2.99 0.34 3.98 0 5 C-0.66 5 -1.32 5 -2 5 C-2.33 5.66 -2.66 6.32 -3 7 C-3.66 5.68 -4.32 4.36 -5 3 C-3.35 2.01 -1.7 1.02 0 0 Z " fill="#3B5A80" transform="translate(285,181)"/>
<path d="M0 0 C0.28875 0.61875 0.5775 1.2375 0.875 1.875 C1.93720042 4.13325765 1.93720042 4.13325765 4 6 C4 6.66 4 7.32 4 8 C2.68 7.67 1.36 7.34 0 7 C-0.38133299 5.0085944 -0.71325582 3.00720923 -1 1 C-0.67 0.67 -0.34 0.34 0 0 Z " fill="#27486E" transform="translate(474,183)"/>
<path d="M0 0 C1 2 1 2 0.75 4.0625 C0.5025 4.701875 0.255 5.34125 0 6 C-0.99 6.33 -1.98 6.66 -3 7 C-3.33 6.01 -3.66 5.02 -4 4 C-2.68 2.68 -1.36 1.36 0 0 Z " fill="#369CDB" transform="translate(162,179)"/>
<path d="M0 0 C0.66 1.32 1.32 2.64 2 4 C1.01 4.99 0.02 5.98 -1 7 C-1.66 6.34 -2.32 5.68 -3 5 C-2.01 3.35 -1.02 1.7 0 0 Z " fill="#4AADE2" transform="translate(166,173)"/>
</svg>
